<?xml version="1.0" encoding="UTF-8" standalone="no"?>
<svg
   width="700.00037"
   height="220"
   viewBox="0 0 185.20843 58.208335"
   version="1.1"
   id="svg243962"
   inkscape:version="1.2-dev (bee661db15, 2021-04-18)"
   sodipodi:docname="start-welcome.de.svg"
   inkscape:export-filename="/home/doctormo/Projects/inkscape/inkscape/share/screens/start-welcome.png"
   inkscape:export-xdpi="96"
   inkscape:export-ydpi="96"
   xmlns:inkscape="http://www.inkscape.org/namespaces/inkscape"
   xmlns:sodipodi="http://sodipodi.sourceforge.net/DTD/sodipodi-0.dtd"
   xmlns="http://www.w3.org/2000/svg"
   xmlns:svg="http://www.w3.org/2000/svg">
  <sodipodi:namedview
     id="namedview243964"
     pagecolor="#ffffff"
     bordercolor="#666666"
     borderopacity="1.0"
     objecttolerance="10.0"
     gridtolerance="10.0"
     guidetolerance="10.0"
     inkscape:pageshadow="2"
     inkscape:pageopacity="0.0"
     inkscape:pagecheckerboard="0"
     inkscape:document-units="px"
     showgrid="false"
     units="px"
     inkscape:zoom="0.39356858"
     inkscape:cx="748.28128"
     inkscape:cy="110.52712"
     inkscape:window-width="1534"
     inkscape:window-height="843"
     inkscape:window-x="66"
     inkscape:window-y="20"
     inkscape:window-maximized="1"
     inkscape:current-layer="layer3" />
  <defs
     id="defs243959" />
  <g
     inkscape:label="Layer 1"
     inkscape:groupmode="layer"
     id="layer1"
     transform="translate(-18.957616,-31.677996)">
    <g
       inkscape:groupmode="layer"
       id="layer3"
       inkscape:label="Text"
       style="display:inline">
      <g
         aria-label="Willkommen!"
         id="text118971"
         style="font-size:11.1869px;line-height:1.25;font-family:'Roboto Condensed';-inkscape-font-specification:'Roboto Condensed, ';fill:#386582;stroke-width:0.303038">
        <path
           d="m 32.344595,44.794965 h 1.420737 l 0.894952,2.628921 0.894952,-2.628921 h 1.431923 l -1.353615,3.613369 1.006821,2.539426 2.248567,-6.175169 h 1.678035 l -3.233014,7.942699 h -1.297681 l -1.375988,-3.333696 -1.375989,3.333696 h -1.29768 l -3.210641,-7.942699 h 1.655661 l 2.259754,6.175169 0.984448,-2.539426 z"
           style="font-weight:bold;font-family:Raleway;-inkscape-font-specification:Raleway"
           id="path45453" />
        <path
           d="m 41.238176,52.71529 v -5.861936 h 1.499044 v 5.861936 z m 0,-6.678579 v -1.487858 h 1.499044 v 1.487858 z"
           style="font-weight:bold;font-family:Raleway;-inkscape-font-specification:Raleway"
           id="path45455" />
        <path
           d="m 44.079638,44.548853 h 1.499045 v 6.287038 q 0,0.32442 0.156617,0.50341 0.156616,0.178991 0.447476,0.178991 0.134242,0 0.290859,-0.04475 0.167804,-0.04475 0.313233,-0.111869 l 0.201364,1.141064 q -0.302046,0.14543 -0.704774,0.223738 -0.402729,0.07831 -0.727149,0.07831 -0.704775,0 -1.096316,-0.369167 -0.380355,-0.380355 -0.380355,-1.073943 z"
           style="font-weight:bold;font-family:Raleway;-inkscape-font-specification:Raleway"
           id="path45457" />
        <path
           d="m 47.62588,44.548853 h 1.499045 v 6.287038 q 0,0.32442 0.156616,0.50341 0.156617,0.178991 0.447476,0.178991 0.134243,0 0.29086,-0.04475 0.167803,-0.04475 0.313233,-0.111869 l 0.201364,1.141064 q -0.302046,0.14543 -0.704775,0.223738 -0.402728,0.07831 -0.727148,0.07831 -0.704775,0 -1.096316,-0.369167 -0.380355,-0.380355 -0.380355,-1.073943 z"
           style="font-weight:bold;font-family:Raleway;-inkscape-font-specification:Raleway"
           id="path45459" />
        <path
           d="m 55.188219,52.71529 -1.700409,-2.539426 -0.805457,0.79427 v 1.745156 h -1.499044 v -8.166437 h 1.499044 v 4.955797 l 2.349249,-2.640109 h 1.599727 l -2.181445,2.483492 2.338062,3.367257 z"
           style="font-weight:bold;font-family:Raleway;-inkscape-font-specification:Raleway"
           id="path45461" />
        <path
           d="m 59.830762,52.827159 q -0.715961,0 -1.286493,-0.246112 -0.570532,-0.246112 -0.97326,-0.660027 -0.391542,-0.425102 -0.604093,-0.97326 -0.212551,-0.548158 -0.212551,-1.152251 0,-0.615279 0.212551,-1.163437 0.212551,-0.548159 0.604093,-0.962074 0.402728,-0.425102 0.97326,-0.671214 0.570532,-0.246112 1.286493,-0.246112 0.715962,0 1.275307,0.246112 0.570532,0.246112 0.962073,0.671214 0.402729,0.413915 0.61528,0.962074 0.212551,0.548158 0.212551,1.163437 0,0.604093 -0.212551,1.152251 -0.212551,0.548158 -0.604093,0.97326 -0.391541,0.413915 -0.962073,0.660027 -0.570532,0.246112 -1.286494,0.246112 z m -1.532605,-3.03165 q 0,0.391542 0.111869,0.715962 0.123056,0.313233 0.32442,0.548158 0.212551,0.234925 0.492224,0.369168 0.279672,0.123055 0.604092,0.123055 0.32442,0 0.604093,-0.123055 0.279672,-0.134243 0.481037,-0.369168 0.212551,-0.234925 0.32442,-0.559345 0.123056,-0.32442 0.123056,-0.715962 0,-0.380354 -0.123056,-0.704774 -0.111869,-0.324421 -0.32442,-0.559345 -0.201365,-0.234925 -0.481037,-0.357981 -0.279673,-0.134243 -0.604093,-0.134243 -0.32442,0 -0.604092,0.134243 -0.279673,0.134243 -0.492224,0.369167 -0.201364,0.234925 -0.32442,0.559345 -0.111869,0.324421 -0.111869,0.704775 z"
           style="font-weight:bold;font-family:Raleway;-inkscape-font-specification:Raleway"
           id="path45463" />
        <path
           d="m 73.00892,52.71529 h -1.499044 v -3.288949 q 0,-0.704774 -0.246112,-1.029194 -0.234925,-0.32442 -0.660027,-0.32442 -0.447476,0 -0.839018,0.346793 -0.391541,0.335607 -0.559345,0.883766 V 52.71529 H 67.70633 v -3.288949 q 0,-0.704774 -0.246112,-1.029194 -0.234925,-0.32442 -0.660027,-0.32442 -0.436289,0 -0.839018,0.335607 -0.391541,0.335607 -0.559345,0.883765 v 3.423191 h -1.499044 v -5.861936 h 1.353615 v 1.08513 q 0.32442,-0.570532 0.883765,-0.872579 0.570532,-0.313233 1.29768,-0.313233 0.738335,0 1.141064,0.357981 0.402728,0.357981 0.514597,0.883765 0.357981,-0.604092 0.906139,-0.917326 0.548158,-0.32442 1.252933,-0.32442 0.536971,0 0.883765,0.201364 0.346794,0.201365 0.536971,0.525785 0.190178,0.32442 0.257299,0.738335 0.07831,0.413916 0.07831,0.839018 z"
           style="font-weight:bold;font-family:Raleway;-inkscape-font-specification:Raleway"
           id="path45465" />
        <path
           d="m 83.423921,52.71529 h -1.499044 v -3.288949 q 0,-0.704774 -0.246112,-1.029194 -0.234925,-0.32442 -0.660027,-0.32442 -0.447476,0 -0.839018,0.346793 -0.391541,0.335607 -0.559345,0.883766 v 3.412004 h -1.499044 v -3.288949 q 0,-0.704774 -0.246112,-1.029194 -0.234925,-0.32442 -0.660027,-0.32442 -0.436289,0 -0.839018,0.335607 -0.391541,0.335607 -0.559345,0.883765 v 3.423191 h -1.499044 v -5.861936 h 1.353614 v 1.08513 q 0.324421,-0.570532 0.883766,-0.872579 0.570531,-0.313233 1.29768,-0.313233 0.738335,0 1.141064,0.357981 0.402728,0.357981 0.514597,0.883765 0.357981,-0.604092 0.906139,-0.917326 0.548158,-0.32442 1.252933,-0.32442 0.536971,0 0.883765,0.201364 0.346794,0.201365 0.536971,0.525785 0.190178,0.32442 0.257299,0.738335 0.07831,0.413916 0.07831,0.839018 z"
           style="font-weight:bold;font-family:Raleway;-inkscape-font-specification:Raleway"
           id="path45467" />
        <path
           d="m 87.451202,52.827159 q -0.704775,0 -1.275306,-0.234925 -0.570532,-0.246112 -0.973261,-0.660027 -0.402728,-0.413915 -0.626466,-0.962073 -0.212551,-0.548158 -0.212551,-1.152251 0,-0.626466 0.212551,-1.174625 0.212551,-0.559345 0.615279,-0.97326 0.402729,-0.425102 0.973261,-0.671214 0.581718,-0.246112 1.29768,-0.246112 0.715962,0 1.275307,0.246112 0.570532,0.246112 0.962073,0.660027 0.402728,0.413916 0.604093,0.962074 0.212551,0.548158 0.212551,1.141063 0,0.14543 -0.01119,0.279673 0,0.134243 -0.02237,0.223738 h -4.530694 q 0.03356,0.346794 0.167803,0.615279 0.134243,0.268486 0.346794,0.458663 0.212551,0.190178 0.481037,0.29086 0.268485,0.100682 0.559345,0.100682 0.447476,0 0.839017,-0.212551 0.402729,-0.223738 0.548158,-0.581719 l 1.286494,0.357981 q -0.32442,0.671214 -1.040382,1.107503 -0.704775,0.425102 -1.689222,0.425102 z m 1.521419,-3.53506 q -0.05594,-0.660027 -0.492224,-1.051569 -0.425102,-0.402728 -1.040382,-0.402728 -0.302046,0 -0.570532,0.111869 -0.257298,0.100682 -0.458663,0.290859 -0.201364,0.190177 -0.335607,0.458663 -0.123055,0.268486 -0.145429,0.592906 z"
           style="font-weight:bold;font-family:Raleway;-inkscape-font-specification:Raleway"
           id="path45469" />
        <path
           d="M 96.881745,52.71529 H 95.3827 v -3.288949 q 0,-0.704774 -0.246111,-1.029194 -0.246112,-0.32442 -0.682401,-0.32442 -0.223738,0 -0.458663,0.08949 -0.234925,0.08949 -0.447476,0.257298 -0.201364,0.156617 -0.369168,0.380355 -0.167803,0.223738 -0.246112,0.492224 v 3.423191 h -1.499044 v -5.861936 h 1.353615 v 1.08513 q 0.32442,-0.559345 0.939699,-0.872579 0.61528,-0.313233 1.387176,-0.313233 0.548158,0 0.894952,0.201364 0.346794,0.201365 0.536971,0.525785 0.190177,0.32442 0.257299,0.738335 0.07831,0.413916 0.07831,0.839018 z"
           style="font-weight:bold;font-family:Raleway;-inkscape-font-specification:Raleway"
           id="path45471" />
        <path
           d="m 98.48145,49.728388 v -5.034105 h 1.499045 v 5.034105 z m 0,2.986902 v -1.689222 h 1.499045 v 1.689222 z"
           style="font-weight:bold;font-family:Raleway;-inkscape-font-specification:Raleway"
           id="path45473" />
      </g>
      <g
         aria-label="Lass uns ein paar
         Dinge einrichten…"
         id="text115541"
         style="font-size:5.02259px;line-height:1.25;font-family:'Roboto Condensed';-inkscape-font-specification:'Roboto Condensed, ';fill:#386582;stroke-width:0.125564">
        <path
           d="m 35.499037,58.731453 v -3.566039 h 0.693117 v 2.958306 h 1.818178 v 0.607733 z"
           style="font-weight:bold;font-family:Raleway;-inkscape-font-specification:Raleway"
           id="path45494" />
        <path
           d="m 39.085164,58.781679 q -0.190858,0 -0.356604,-0.06027 -0.165745,-0.06529 -0.286287,-0.175791 -0.120542,-0.115519 -0.190859,-0.266197 -0.06529,-0.150678 -0.06529,-0.331491 0,-0.185836 0.08036,-0.341536 0.08538,-0.160723 0.231039,-0.27122 0.150678,-0.110497 0.356604,-0.170768 0.205926,-0.06529 0.452033,-0.06529 0.175791,0 0.341536,0.03014 0.170768,0.03014 0.301356,0.08538 v -0.150678 q 0,-0.261175 -0.150678,-0.401807 -0.145655,-0.140633 -0.436965,-0.140633 -0.210949,0 -0.411853,0.07534 -0.200903,0.07534 -0.411852,0.220994 l -0.205926,-0.42692 q 0.507281,-0.336514 1.094924,-0.336514 0.567553,0 0.878954,0.281265 0.316423,0.276243 0.316423,0.803615 v 0.818682 q 0,0.105474 0.03516,0.150678 0.04018,0.0452 0.125565,0.05023 v 0.572575 q -0.170768,0.03516 -0.296333,0.03516 -0.190858,0 -0.296333,-0.08538 -0.100452,-0.08538 -0.125565,-0.226017 l -0.01507,-0.145655 q -0.175791,0.23104 -0.426921,0.351582 -0.251129,0.120542 -0.537417,0.120542 z m 0.190859,-0.492214 q 0.170768,0 0.321446,-0.06027 0.1557,-0.06027 0.241084,-0.160723 0.110497,-0.08538 0.110497,-0.190858 v -0.301356 q -0.120542,-0.0452 -0.261175,-0.07032 -0.140632,-0.03014 -0.27122,-0.03014 -0.261174,0 -0.42692,0.120543 -0.165745,0.115519 -0.165745,0.296332 0,0.170768 0.130587,0.286288 0.130587,0.110497 0.321446,0.110497 z"
           style="font-weight:bold;font-family:Raleway;-inkscape-font-specification:Raleway"
           id="path45496" />
        <path
           d="m 42.24437,58.781679 q -0.331491,0 -0.647914,-0.105475 -0.316423,-0.105474 -0.542439,-0.301355 l 0.251129,-0.421898 q 0.241084,0.170769 0.467101,0.261175 0.231039,0.08538 0.457056,0.08538 0.200903,0 0.316423,-0.07534 0.115519,-0.07534 0.115519,-0.215971 0,-0.140633 -0.13561,-0.205926 -0.135609,-0.06529 -0.441987,-0.150678 -0.256153,-0.07032 -0.436966,-0.13561 -0.180813,-0.06529 -0.29131,-0.145655 -0.110497,-0.08538 -0.160723,-0.190858 -0.05023,-0.110497 -0.05023,-0.261175 0,-0.200904 0.07534,-0.361627 0.08036,-0.160722 0.220994,-0.271219 0.140633,-0.11552 0.326468,-0.175791 0.190859,-0.06027 0.411853,-0.06027 0.296333,0 0.552485,0.08538 0.261174,0.08538 0.477146,0.276242 l -0.27122,0.40683 q -0.200904,-0.150678 -0.391762,-0.220994 -0.185836,-0.07032 -0.371672,-0.07032 -0.170768,0 -0.286287,0.07032 -0.11552,0.07032 -0.11552,0.226017 0,0.07032 0.02511,0.115519 0.03014,0.0452 0.09041,0.08036 0.06027,0.03516 0.1557,0.07032 0.100452,0.03014 0.246107,0.06529 0.27122,0.07032 0.462078,0.140632 0.195881,0.07032 0.316423,0.160723 0.125565,0.09041 0.180813,0.210949 0.06027,0.115519 0.06027,0.281265 0,0.386739 -0.286288,0.612756 -0.286288,0.220994 -0.778502,0.220994 z"
           style="font-weight:bold;font-family:Raleway;-inkscape-font-specification:Raleway"
           id="path45498" />
        <path
           d="m 44.740597,58.781679 q -0.331491,0 -0.647914,-0.105475 -0.316424,-0.105474 -0.54244,-0.301355 l 0.251129,-0.421898 q 0.241085,0.170769 0.467101,0.261175 0.231039,0.08538 0.457056,0.08538 0.200904,0 0.316423,-0.07534 0.11552,-0.07534 0.11552,-0.215971 0,-0.140633 -0.13561,-0.205926 -0.13561,-0.06529 -0.441988,-0.150678 -0.256152,-0.07032 -0.436965,-0.13561 -0.180814,-0.06529 -0.291311,-0.145655 -0.110497,-0.08538 -0.160723,-0.190858 -0.05022,-0.110497 -0.05022,-0.261175 0,-0.200904 0.07534,-0.361627 0.08036,-0.160722 0.220994,-0.271219 0.140633,-0.11552 0.326469,-0.175791 0.190858,-0.06027 0.411852,-0.06027 0.296333,0 0.552485,0.08538 0.261175,0.08538 0.477146,0.276242 l -0.27122,0.40683 q -0.200903,-0.150678 -0.391762,-0.220994 -0.185836,-0.07032 -0.371672,-0.07032 -0.170768,0 -0.286287,0.07032 -0.11552,0.07032 -0.11552,0.226017 0,0.07032 0.02511,0.115519 0.03014,0.0452 0.09041,0.08036 0.06027,0.03516 0.1557,0.07032 0.100452,0.03014 0.246107,0.06529 0.27122,0.07032 0.462078,0.140632 0.195881,0.07032 0.316424,0.160723 0.125564,0.09041 0.180813,0.210949 0.06027,0.115519 0.06027,0.281265 0,0.386739 -0.286288,0.612756 -0.286287,0.220994 -0.778501,0.220994 z"
           style="font-weight:bold;font-family:Raleway;-inkscape-font-specification:Raleway"
           id="path45500" />
        <path
           d="m 48.251384,58.781679 q -0.40683,0 -0.617778,-0.261175 -0.210949,-0.261175 -0.210949,-0.773479 v -1.647409 h 0.673027 v 1.501754 q 0,0.607734 0.436965,0.607734 0.195881,0 0.376694,-0.11552 0.185836,-0.120542 0.301356,-0.361627 v -1.632341 h 0.673027 v 1.858358 q 0,0.105474 0.03516,0.150678 0.04018,0.0452 0.125565,0.05023 v 0.572575 q -0.100452,0.02009 -0.170768,0.02511 -0.06529,0.005 -0.120542,0.005 -0.180814,0 -0.296333,-0.08036 -0.110497,-0.08538 -0.130588,-0.231039 l -0.01507,-0.210949 q -0.175791,0.27122 -0.452033,0.40683 -0.276243,0.13561 -0.607734,0.13561 z"
           style="font-weight:bold;font-family:Raleway;-inkscape-font-specification:Raleway"
           id="path45502" />
        <path
           d="m 52.997723,58.731453 h -0.673027 v -1.476642 q 0,-0.316423 -0.110497,-0.462078 -0.110497,-0.145655 -0.306378,-0.145655 -0.100452,0 -0.205927,0.04018 -0.105474,0.04018 -0.200903,0.115519 -0.09041,0.07032 -0.165746,0.170768 -0.07534,0.100452 -0.110497,0.220994 v 1.536913 h -0.673027 v -2.631837 h 0.607734 v 0.487191 q 0.145655,-0.25113 0.421897,-0.391762 0.276243,-0.140633 0.622801,-0.140633 0.246107,0 0.401808,0.09041 0.1557,0.09041 0.241084,0.236062 0.08538,0.145655 0.115519,0.331491 0.03516,0.185836 0.03516,0.376694 z"
           style="font-weight:bold;font-family:Raleway;-inkscape-font-specification:Raleway"
           id="path45504" />
        <path
           d="m 54.579829,58.781679 q -0.331491,0 -0.647914,-0.105475 -0.316423,-0.105474 -0.54244,-0.301355 l 0.25113,-0.421898 q 0.241084,0.170769 0.467101,0.261175 0.231039,0.08538 0.457055,0.08538 0.200904,0 0.316424,-0.07534 0.115519,-0.07534 0.115519,-0.215971 0,-0.140633 -0.13561,-0.205926 -0.13561,-0.06529 -0.441988,-0.150678 -0.256152,-0.07032 -0.436965,-0.13561 -0.180813,-0.06529 -0.29131,-0.145655 -0.110497,-0.08538 -0.160723,-0.190858 -0.05023,-0.110497 -0.05023,-0.261175 0,-0.200904 0.07534,-0.361627 0.08036,-0.160722 0.220994,-0.271219 0.140632,-0.11552 0.326468,-0.175791 0.190859,-0.06027 0.411853,-0.06027 0.296332,0 0.552484,0.08538 0.261175,0.08538 0.477147,0.276242 l -0.27122,0.40683 q -0.200904,-0.150678 -0.391762,-0.220994 -0.185836,-0.07032 -0.371672,-0.07032 -0.170768,0 -0.286288,0.07032 -0.115519,0.07032 -0.115519,0.226017 0,0.07032 0.02511,0.115519 0.03014,0.0452 0.09041,0.08036 0.06027,0.03516 0.155701,0.07032 0.100451,0.03014 0.246107,0.06529 0.271219,0.07032 0.462078,0.140632 0.195881,0.07032 0.316423,0.160723 0.125565,0.09041 0.180813,0.210949 0.06027,0.115519 0.06027,0.281265 0,0.386739 -0.286287,0.612756 -0.286288,0.220994 -0.778502,0.220994 z"
           style="font-weight:bold;font-family:Raleway;-inkscape-font-specification:Raleway"
           id="path45506" />
        <path
           d="m 58.507493,58.781679 q -0.316424,0 -0.572576,-0.105475 -0.256152,-0.110497 -0.436965,-0.296332 -0.180813,-0.185836 -0.281265,-0.431943 -0.09543,-0.246107 -0.09543,-0.517327 0,-0.281265 0.09543,-0.527372 0.09543,-0.251129 0.276242,-0.436965 0.180814,-0.190859 0.436966,-0.301356 0.261174,-0.110497 0.58262,-0.110497 0.321446,0 0.572575,0.110497 0.256153,0.110497 0.431943,0.296333 0.180813,0.185836 0.27122,0.431943 0.09543,0.246107 0.09543,0.512304 0,0.06529 -0.005,0.125565 0,0.06027 -0.01005,0.100452 h -2.034149 q 0.01507,0.1557 0.07534,0.276242 0.06027,0.120542 0.155701,0.205926 0.09543,0.08538 0.215971,0.130588 0.120542,0.0452 0.25113,0.0452 0.200903,0 0.376694,-0.09543 0.180813,-0.100452 0.246107,-0.261175 l 0.577598,0.160723 q -0.145656,0.301355 -0.467101,0.497236 -0.316424,0.190859 -0.758411,0.190859 z m 0.683072,-1.587139 q -0.02511,-0.296332 -0.220994,-0.472123 -0.190859,-0.180813 -0.467101,-0.180813 -0.13561,0 -0.256152,0.05023 -0.11552,0.0452 -0.205926,0.130587 -0.09041,0.08538 -0.150678,0.205926 -0.05525,0.120542 -0.06529,0.266197 z"
           style="font-weight:bold;font-family:Raleway;-inkscape-font-specification:Raleway"
           id="path45508" />
        <path
           d="m 60.295529,58.731453 v -2.631837 h 0.673027 v 2.631837 z m 0,-2.998486 v -0.668005 h 0.673027 v 0.668005 z"
           style="font-weight:bold;font-family:Raleway;-inkscape-font-specification:Raleway"
           id="path45510" />
        <path
           d="m 64.022288,58.731453 h -0.673027 v -1.476642 q 0,-0.316423 -0.110497,-0.462078 -0.110497,-0.145655 -0.306378,-0.145655 -0.100452,0 -0.205926,0.04018 -0.105474,0.04018 -0.200904,0.115519 -0.09041,0.07032 -0.165745,0.170768 -0.07534,0.100452 -0.110497,0.220994 v 1.536913 h -0.673027 v -2.631837 h 0.607733 v 0.487191 q 0.145655,-0.25113 0.421898,-0.391762 0.276242,-0.140633 0.622801,-0.140633 0.246107,0 0.401807,0.09041 0.155701,0.09041 0.241085,0.236062 0.08538,0.145655 0.115519,0.331491 0.03516,0.185836 0.03516,0.376694 z"
           style="font-weight:bold;font-family:Raleway;-inkscape-font-specification:Raleway"
           id="path45512" />
        <path
           d="m 67.392436,58.781679 q -0.311401,0 -0.54244,-0.13561 -0.231039,-0.140633 -0.361626,-0.376694 v 1.53189 h -0.673027 v -3.701649 h 0.587643 v 0.452033 q 0.145655,-0.231039 0.376694,-0.361627 0.231039,-0.13561 0.532394,-0.13561 0.266198,0 0.492214,0.110497 0.226017,0.105475 0.38674,0.291311 0.165745,0.180813 0.256152,0.431942 0.09543,0.246107 0.09543,0.52235 0,0.286287 -0.08538,0.537417 -0.08538,0.251129 -0.241084,0.436965 -0.150678,0.185836 -0.361627,0.29131 -0.210949,0.105475 -0.462078,0.105475 z m -0.226017,-0.572575 q 0.150678,0 0.276243,-0.06529 0.130587,-0.06529 0.220994,-0.175791 0.09041,-0.110497 0.140632,-0.256152 0.05023,-0.145655 0.05023,-0.301355 0,-0.165746 -0.05525,-0.306378 -0.05525,-0.145655 -0.155701,-0.25113 -0.09543,-0.105474 -0.231039,-0.165745 -0.130587,-0.06027 -0.286287,-0.06027 -0.09543,0 -0.195881,0.03516 -0.100452,0.03014 -0.185836,0.09041 -0.08538,0.06027 -0.155701,0.140633 -0.06529,0.08036 -0.100451,0.175791 v 0.617778 q 0.09041,0.226017 0.276242,0.376694 0.185836,0.145656 0.401807,0.145656 z"
           style="font-weight:bold;font-family:Raleway;-inkscape-font-specification:Raleway"
           id="path45514" />
        <path
           d="m 69.717888,58.781679 q -0.190859,0 -0.356604,-0.06027 -0.165746,-0.06529 -0.286288,-0.175791 -0.120542,-0.115519 -0.190858,-0.266197 -0.06529,-0.150678 -0.06529,-0.331491 0,-0.185836 0.08036,-0.341536 0.08538,-0.160723 0.23104,-0.27122 0.150677,-0.110497 0.356604,-0.170768 0.205926,-0.06529 0.452033,-0.06529 0.17579,0 0.341536,0.03014 0.170768,0.03014 0.301355,0.08538 v -0.150678 q 0,-0.261175 -0.150678,-0.401807 -0.145655,-0.140633 -0.436965,-0.140633 -0.210949,0 -0.411852,0.07534 -0.200904,0.07534 -0.411853,0.220994 l -0.205926,-0.42692 q 0.507282,-0.336514 1.094925,-0.336514 0.567552,0 0.878953,0.281265 0.316423,0.276243 0.316423,0.803615 v 0.818682 q 0,0.105474 0.03516,0.150678 0.04018,0.0452 0.125565,0.05023 v 0.572575 q -0.170768,0.03516 -0.296333,0.03516 -0.190858,0 -0.296333,-0.08538 -0.100451,-0.08538 -0.125564,-0.226017 l -0.01507,-0.145655 q -0.175791,0.23104 -0.42692,0.351582 -0.25113,0.120542 -0.537417,0.120542 z m 0.190858,-0.492214 q 0.170768,0 0.321446,-0.06027 0.1557,-0.06027 0.241084,-0.160723 0.110497,-0.08538 0.110497,-0.190858 v -0.301356 q -0.120542,-0.0452 -0.261175,-0.07032 -0.140632,-0.03014 -0.271219,-0.03014 -0.261175,0 -0.426921,0.120543 -0.165745,0.115519 -0.165745,0.296332 0,0.170768 0.130587,0.286288 0.130588,0.110497 0.321446,0.110497 z"
           style="font-weight:bold;font-family:Raleway;-inkscape-font-specification:Raleway"
           id="path45516" />
        <path
           d="m 72.600853,58.781679 q -0.190859,0 -0.356604,-0.06027 -0.165746,-0.06529 -0.286288,-0.175791 -0.120542,-0.115519 -0.190858,-0.266197 -0.06529,-0.150678 -0.06529,-0.331491 0,-0.185836 0.08036,-0.341536 0.08538,-0.160723 0.231039,-0.27122 0.150677,-0.110497 0.356604,-0.170768 0.205926,-0.06529 0.452033,-0.06529 0.17579,0 0.341536,0.03014 0.170768,0.03014 0.301355,0.08538 v -0.150678 q 0,-0.261175 -0.150677,-0.401807 -0.145656,-0.140633 -0.436966,-0.140633 -0.210949,0 -0.411852,0.07534 -0.200904,0.07534 -0.411853,0.220994 l -0.205926,-0.42692 q 0.507282,-0.336514 1.094925,-0.336514 0.567553,0 0.878953,0.281265 0.316423,0.276243 0.316423,0.803615 v 0.818682 q 0,0.105474 0.03516,0.150678 0.04018,0.0452 0.125565,0.05023 v 0.572575 q -0.170768,0.03516 -0.296333,0.03516 -0.190858,0 -0.296332,-0.08538 -0.100452,-0.08538 -0.125565,-0.226017 l -0.01507,-0.145655 q -0.175791,0.23104 -0.42692,0.351582 -0.25113,0.120542 -0.537417,0.120542 z m 0.190858,-0.492214 q 0.170768,0 0.321446,-0.06027 0.1557,-0.06027 0.241084,-0.160723 0.110497,-0.08538 0.110497,-0.190858 v -0.301356 q -0.120542,-0.0452 -0.261174,-0.07032 -0.140633,-0.03014 -0.27122,-0.03014 -0.261175,0 -0.42692,0.120543 -0.165746,0.115519 -0.165746,0.296332 0,0.170768 0.130587,0.286288 0.130588,0.110497 0.321446,0.110497 z"
           style="font-weight:bold;font-family:Raleway;-inkscape-font-specification:Raleway"
           id="path45518" />
        <path
           d="m 76.332636,56.682236 q -0.306378,0.005 -0.547463,0.120542 -0.241084,0.110497 -0.346558,0.336514 v 1.592161 h -0.673028 v -2.631837 h 0.617779 v 0.56253 q 0.07032,-0.13561 0.165746,-0.241085 0.09543,-0.110497 0.205926,-0.190858 0.110497,-0.08036 0.220994,-0.120542 0.115519,-0.0452 0.220994,-0.0452 0.05525,0 0.08036,0 0.03014,0 0.05525,0.005 z"
           style="font-weight:bold;font-family:Raleway;-inkscape-font-specification:Raleway"
           id="path45520" />
        <path
           d="m 46.347821,65.264243 v -3.566039 h 1.295828 q 0.436966,0 0.763434,0.140632 0.331491,0.140633 0.552485,0.381717 0.220994,0.241084 0.331491,0.567553 0.110497,0.321446 0.110497,0.688095 0,0.406829 -0.125565,0.73832 -0.120542,0.326469 -0.351581,0.56253 -0.231039,0.23104 -0.557508,0.361627 -0.321445,0.125565 -0.723253,0.125565 z m 2.355595,-1.788042 q 0,-0.256152 -0.07032,-0.472124 -0.07032,-0.215971 -0.205926,-0.371672 -0.13561,-0.1557 -0.336514,-0.241084 -0.195881,-0.08538 -0.447011,-0.08538 h -0.60271 v 2.350572 h 0.60271 q 0.256153,0 0.452034,-0.09041 0.200903,-0.09041 0.331491,-0.246107 0.135609,-0.160723 0.205926,-0.376695 0.07032,-0.215971 0.07032,-0.4671 z"
           style="font-weight:bold;font-family:Raleway;-inkscape-font-specification:Raleway"
           id="path45522" />
        <path
           d="m 49.8787,65.264243 v -2.631838 h 0.673027 v 2.631838 z m 0,-2.998487 v -0.668004 h 0.673027 v 0.668004 z"
           style="font-weight:bold;font-family:Raleway;-inkscape-font-specification:Raleway"
           id="path45524" />
        <path
           d="m 53.605458,65.264243 h -0.673027 v -1.476642 q 0,-0.316423 -0.110497,-0.462078 -0.110497,-0.145655 -0.306378,-0.145655 -0.100452,0 -0.205926,0.04018 -0.105474,0.04018 -0.200904,0.115519 -0.09041,0.07032 -0.165745,0.170768 -0.07534,0.100452 -0.110497,0.220994 v 1.536913 h -0.673027 v -2.631838 h 0.607733 v 0.487192 q 0.145655,-0.25113 0.421898,-0.391762 0.276242,-0.140633 0.622801,-0.140633 0.246107,0 0.401807,0.09041 0.155701,0.09041 0.241085,0.236062 0.08538,0.145655 0.115519,0.33149 0.03516,0.185836 0.03516,0.376695 z"
           style="font-weight:bold;font-family:Raleway;-inkscape-font-specification:Raleway"
           id="path45526" />
        <path
           d="m 55.222722,65.27931 q -0.266197,0 -0.482169,-0.105474 -0.215971,-0.105474 -0.376694,-0.286288 -0.1557,-0.185835 -0.241084,-0.42692 -0.08538,-0.241084 -0.08538,-0.512304 0,-0.286288 0.09041,-0.532394 0.09041,-0.246107 0.25113,-0.431943 0.160723,-0.185836 0.386739,-0.29131 0.226017,-0.105475 0.497237,-0.105475 0.306378,0 0.537417,0.140633 0.231039,0.13561 0.381717,0.366649 v -0.462079 h 0.587643 v 2.506273 q 0,0.29131 -0.110497,0.522349 -0.110497,0.231039 -0.306378,0.391762 -0.190859,0.160723 -0.462078,0.246107 -0.266198,0.08538 -0.582621,0.08538 -0.431943,0 -0.728276,-0.145655 -0.29131,-0.140632 -0.502259,-0.401807 l 0.36665,-0.356604 q 0.150677,0.185836 0.376694,0.29131 0.231039,0.105475 0.487191,0.105475 0.1557,0 0.296333,-0.0452 0.145655,-0.04018 0.256152,-0.130587 0.110497,-0.09041 0.170768,-0.231039 0.06529,-0.140633 0.06529,-0.331491 v -0.331491 q -0.130588,0.226017 -0.366649,0.351581 -0.236062,0.120542 -0.507282,0.120542 z m 0.226017,-0.537417 q 0.110497,0 0.210948,-0.03516 0.100452,-0.03516 0.185836,-0.09543 0.08538,-0.06027 0.150678,-0.140633 0.06529,-0.08036 0.100452,-0.170768 v -0.627823 q -0.09041,-0.23104 -0.286288,-0.371672 -0.190858,-0.140633 -0.401807,-0.140633 -0.1557,0 -0.281265,0.07032 -0.125565,0.06529 -0.215972,0.180813 -0.09041,0.110497 -0.140632,0.256152 -0.0452,0.145655 -0.0452,0.301355 0,0.160723 0.05525,0.301356 0.05525,0.140632 0.150678,0.246107 0.100452,0.105474 0.231039,0.165745 0.130587,0.06027 0.286288,0.06027 z"
           style="font-weight:bold;font-family:Raleway;-inkscape-font-specification:Raleway"
           id="path45528" />
        <path
           d="m 58.597897,65.314469 q -0.316423,0 -0.572575,-0.105475 -0.256152,-0.110497 -0.436966,-0.296333 -0.180813,-0.185835 -0.281265,-0.431942 -0.09543,-0.246107 -0.09543,-0.517327 0,-0.281265 0.09543,-0.527372 0.09543,-0.25113 0.276243,-0.436965 0.180813,-0.190859 0.436965,-0.301356 0.261175,-0.110497 0.582621,-0.110497 0.321445,0 0.572575,0.110497 0.256152,0.110497 0.431943,0.296333 0.180813,0.185836 0.27122,0.431943 0.09543,0.246107 0.09543,0.512304 0,0.06529 -0.005,0.125565 0,0.06027 -0.01005,0.100451 H 57.92487 q 0.01507,0.155701 0.07534,0.276243 0.06027,0.120542 0.1557,0.205926 0.09543,0.08538 0.215972,0.130587 0.120542,0.0452 0.251129,0.0452 0.200904,0 0.376694,-0.09543 0.180814,-0.100452 0.246107,-0.261175 l 0.577598,0.160723 q -0.145655,0.301355 -0.467101,0.497236 -0.316423,0.190859 -0.758411,0.190859 z m 0.683072,-1.587139 q -0.02511,-0.296333 -0.220994,-0.472123 -0.190858,-0.180814 -0.467101,-0.180814 -0.135609,0 -0.256152,0.05023 -0.115519,0.0452 -0.205926,0.130588 -0.09041,0.08538 -0.150678,0.205926 -0.05525,0.120542 -0.06529,0.266197 z"
           style="font-weight:bold;font-family:Raleway;-inkscape-font-specification:Raleway"
           id="path45530" />
        <path
           d="m 62.811844,65.314469 q -0.316423,0 -0.572575,-0.105475 -0.256152,-0.110497 -0.436965,-0.296333 -0.180814,-0.185835 -0.281265,-0.431942 -0.09543,-0.246107 -0.09543,-0.517327 0,-0.281265 0.09543,-0.527372 0.09543,-0.25113 0.276242,-0.436965 0.180813,-0.190859 0.436965,-0.301356 0.261175,-0.110497 0.582621,-0.110497 0.321446,0 0.572575,0.110497 0.256152,0.110497 0.431943,0.296333 0.180813,0.185836 0.27122,0.431943 0.09543,0.246107 0.09543,0.512304 0,0.06529 -0.005,0.125565 0,0.06027 -0.01004,0.100451 h -2.034149 q 0.01507,0.155701 0.07534,0.276243 0.06027,0.120542 0.1557,0.205926 0.09543,0.08538 0.215972,0.130587 0.120542,0.0452 0.251129,0.0452 0.200904,0 0.376695,-0.09543 0.180813,-0.100452 0.246106,-0.261175 l 0.577598,0.160723 q -0.145655,0.301355 -0.467101,0.497236 -0.316423,0.190859 -0.758411,0.190859 z m 0.683073,-1.587139 q -0.02511,-0.296333 -0.220994,-0.472123 -0.190859,-0.180814 -0.467101,-0.180814 -0.13561,0 -0.256152,0.05023 -0.11552,0.0452 -0.205927,0.130588 -0.09041,0.08538 -0.150677,0.205926 -0.05525,0.120542 -0.06529,0.266197 z"
           style="font-weight:bold;font-family:Raleway;-inkscape-font-specification:Raleway"
           id="path45532" />
        <path
           d="m 64.599881,65.264243 v -2.631838 h 0.673027 v 2.631838 z m 0,-2.998487 v -0.668004 h 0.673027 v 0.668004 z"
           style="font-weight:bold;font-family:Raleway;-inkscape-font-specification:Raleway"
           id="path45534" />
        <path
           d="m 68.32664,65.264243 h -0.673027 v -1.476642 q 0,-0.316423 -0.110497,-0.462078 -0.110497,-0.145655 -0.306378,-0.145655 -0.100452,0 -0.205926,0.04018 -0.105475,0.04018 -0.200904,0.115519 -0.09041,0.07032 -0.165745,0.170768 -0.07534,0.100452 -0.110497,0.220994 v 1.536913 h -0.673027 v -2.631838 h 0.607733 v 0.487192 q 0.145655,-0.25113 0.421898,-0.391762 0.276242,-0.140633 0.622801,-0.140633 0.246107,0 0.401807,0.09041 0.1557,0.09041 0.241084,0.236062 0.08538,0.145655 0.11552,0.33149 0.03516,0.185836 0.03516,0.376695 z"
           style="font-weight:bold;font-family:Raleway;-inkscape-font-specification:Raleway"
           id="path45536" />
        <path
           d="m 70.481321,63.215026 q -0.306378,0.005 -0.547462,0.120542 -0.241085,0.110497 -0.346559,0.336514 v 1.592161 h -0.673027 v -2.631838 h 0.617778 v 0.562531 q 0.07032,-0.13561 0.165746,-0.241085 0.09543,-0.110497 0.205926,-0.190858 0.110497,-0.08036 0.220994,-0.120542 0.11552,-0.0452 0.220994,-0.0452 0.05525,0 0.08036,0 0.03014,0 0.05525,0.005 z"
           style="font-weight:bold;font-family:Raleway;-inkscape-font-specification:Raleway"
           id="path45538" />
        <path
           d="m 70.85801,65.264243 v -2.631838 h 0.673027 v 2.631838 z m 0,-2.998487 v -0.668004 h 0.673027 v 0.668004 z"
           style="font-weight:bold;font-family:Raleway;-inkscape-font-specification:Raleway"
           id="path45540" />
        <path
           d="m 71.973022,63.948324 q 0,-0.276242 0.09543,-0.522349 0.09543,-0.246107 0.276242,-0.431943 0.180813,-0.185836 0.436965,-0.296333 0.256152,-0.110497 0.577598,-0.110497 0.431943,0 0.733298,0.185836 0.306378,0.185836 0.457056,0.487191 l -0.657959,0.200904 q -0.08538,-0.145655 -0.226017,-0.220994 -0.140632,-0.08036 -0.3114,-0.08036 -0.145655,0 -0.27122,0.06027 -0.125565,0.05525 -0.220994,0.160722 -0.09041,0.100452 -0.145655,0.246107 -0.05023,0.145655 -0.05023,0.321446 0,0.175791 0.05525,0.321446 0.05525,0.145655 0.145655,0.251129 0.09543,0.105475 0.220994,0.165746 0.125565,0.05525 0.266198,0.05525 0.180813,0 0.331491,-0.09041 0.1557,-0.09041 0.215971,-0.220994 l 0.657959,0.200903 q -0.13561,0.301356 -0.44701,0.492214 -0.311401,0.190859 -0.748366,0.190859 -0.321446,0 -0.577598,-0.110497 -0.256152,-0.110497 -0.436965,-0.296333 -0.180814,-0.190859 -0.281265,-0.436966 -0.09543,-0.251129 -0.09543,-0.522349 z"
           style="font-weight:bold;font-family:Raleway;-inkscape-font-specification:Raleway"
           id="path45542" />
        <path
           d="m 77.417506,65.264243 h -0.673027 v -1.476642 q 0,-0.3114 -0.115519,-0.457056 -0.11552,-0.150677 -0.326469,-0.150677 -0.09041,0 -0.190858,0.04018 -0.100452,0.04018 -0.190859,0.115519 -0.09041,0.07032 -0.165745,0.170768 -0.07534,0.100452 -0.110497,0.220994 v 1.536913 h -0.673027 v -3.666491 h 0.673027 v 1.521845 q 0.145655,-0.256152 0.391762,-0.391762 0.251129,-0.140633 0.552485,-0.140633 0.256152,0 0.416875,0.09041 0.160723,0.08538 0.251129,0.231039 0.09041,0.145655 0.125565,0.331491 0.03516,0.185836 0.03516,0.381717 z"
           style="font-weight:bold;font-family:Raleway;-inkscape-font-specification:Raleway"
           id="path45544" />
        <path
           d="m 79.557116,65.128633 q -0.13561,0.06027 -0.331491,0.120542 -0.195881,0.06027 -0.411852,0.06027 -0.140633,0 -0.266197,-0.03516 -0.120542,-0.03516 -0.215972,-0.110497 -0.09041,-0.08036 -0.145655,-0.200904 -0.05525,-0.125564 -0.05525,-0.301355 v -1.5118 h -0.346559 v -0.517327 h 0.346559 v -0.85384 h 0.673027 v 0.85384 h 0.552485 v 0.517327 h -0.552485 v 1.285783 q 0,0.140633 0.07032,0.200904 0.07534,0.05525 0.180813,0.05525 0.105475,0 0.205927,-0.03516 0.100451,-0.03516 0.160722,-0.06027 z"
           style="font-weight:bold;font-family:Raleway;-inkscape-font-specification:Raleway"
           id="path45546" />
        <path
           d="m 81.063885,65.314469 q -0.316423,0 -0.572575,-0.105475 -0.256152,-0.110497 -0.436965,-0.296333 -0.180814,-0.185835 -0.281265,-0.431942 -0.09543,-0.246107 -0.09543,-0.517327 0,-0.281265 0.09543,-0.527372 0.09543,-0.25113 0.276242,-0.436965 0.180813,-0.190859 0.436965,-0.301356 0.261175,-0.110497 0.582621,-0.110497 0.321446,0 0.572575,0.110497 0.256152,0.110497 0.431943,0.296333 0.180813,0.185836 0.27122,0.431943 0.09543,0.246107 0.09543,0.512304 0,0.06529 -0.005,0.125565 0,0.06027 -0.01005,0.100451 h -2.034149 q 0.01507,0.155701 0.07534,0.276243 0.06027,0.120542 0.1557,0.205926 0.09543,0.08538 0.215972,0.130587 0.120542,0.0452 0.251129,0.0452 0.200904,0 0.376694,-0.09543 0.180814,-0.100452 0.246107,-0.261175 l 0.577598,0.160723 q -0.145655,0.301355 -0.467101,0.497236 -0.316423,0.190859 -0.758411,0.190859 z m 0.683072,-1.587139 q -0.02511,-0.296333 -0.220993,-0.472123 -0.190859,-0.180814 -0.467101,-0.180814 -0.13561,0 -0.256152,0.05023 -0.11552,0.0452 -0.205927,0.130588 -0.09041,0.08538 -0.150677,0.205926 -0.05525,0.120542 -0.06529,0.266197 z"
           style="font-weight:bold;font-family:Raleway;-inkscape-font-specification:Raleway"
           id="path45548" />
        <path
           d="m 85.297923,65.264243 h -0.673027 v -1.476642 q 0,-0.316423 -0.110497,-0.462078 -0.110497,-0.145655 -0.306378,-0.145655 -0.100452,0 -0.205926,0.04018 -0.105475,0.04018 -0.200904,0.115519 -0.09041,0.07032 -0.165745,0.170768 -0.07534,0.100452 -0.110497,0.220994 v 1.536913 h -0.673027 v -2.631838 h 0.607733 v 0.487192 q 0.145655,-0.25113 0.421898,-0.391762 0.276242,-0.140633 0.622801,-0.140633 0.246107,0 0.401807,0.09041 0.1557,0.09041 0.241084,0.236062 0.08538,0.145655 0.11552,0.33149 0.03516,0.185836 0.03516,0.376695 z"
           style="font-weight:bold;font-family:Raleway;-inkscape-font-specification:Raleway"
           id="path45550" />
        <path
           d="M 85.870488,65.264243 V 64.54099 h 0.552485 v 0.723253 z m 0.944247,0 V 64.54099 h 0.552485 v 0.723253 z m 0.944247,0 V 64.54099 h 0.552485 v 0.723253 z"
           style="font-weight:bold;font-family:Raleway;-inkscape-font-specification:Raleway"
           id="path45552" />
      </g>
    </g>
  </g>
</svg>
