<?xml version="1.0" encoding="UTF-8" standalone="no"?>
<svg
   width="700.00037"
   height="220"
   viewBox="0 0 185.20843 58.208335"
   version="1.1"
   id="svg243962"
   inkscape:version="1.2-dev (bee661db15, 2021-04-18)"
   sodipodi:docname="start-welcome.uk.svg"
   inkscape:export-filename="/home/doctormo/Projects/inkscape/inkscape/share/screens/start-welcome.png"
   inkscape:export-xdpi="96"
   inkscape:export-ydpi="96"
   xmlns:inkscape="http://www.inkscape.org/namespaces/inkscape"
   xmlns:sodipodi="http://sodipodi.sourceforge.net/DTD/sodipodi-0.dtd"
   xmlns="http://www.w3.org/2000/svg"
   xmlns:svg="http://www.w3.org/2000/svg">
  <sodipodi:namedview
     id="namedview243964"
     pagecolor="#ffffff"
     bordercolor="#666666"
     borderopacity="1.0"
     objecttolerance="10.0"
     gridtolerance="10.0"
     guidetolerance="10.0"
     inkscape:pageshadow="2"
     inkscape:pageopacity="0.0"
     inkscape:pagecheckerboard="0"
     inkscape:document-units="px"
     showgrid="false"
     units="px"
     inkscape:zoom="0.75187991"
     inkscape:cx="389.02489"
     inkscape:cy="204.15494"
     inkscape:window-width="1534"
     inkscape:window-height="843"
     inkscape:window-x="66"
     inkscape:window-y="20"
     inkscape:window-maximized="1"
     inkscape:current-layer="layer3" />
  <defs
     id="defs243959" />
  <g
     inkscape:label="Layer 1"
     inkscape:groupmode="layer"
     id="layer1"
     transform="translate(-18.957616,-31.677996)">
    <g
       inkscape:groupmode="layer"
       id="layer3"
       inkscape:label="Text"
       style="display:inline">
      <g
         aria-label="Вітаємо!"
         transform="matrix(0.26458334,0,0,0.26458334,-116.4687,-316.66515)"
         id="text118971"
         style="font-size:45.8136px;line-height:1.25;font-family:'Roboto Condensed';-inkscape-font-specification:'Roboto Condensed, ';fill:#386582;stroke-width:1.14534">
        <path
           d="m 598.18531,1392.9713 q 0,2.0616 -0.82464,3.6193 -0.82465,1.5577 -2.29068,2.6114 -1.42022,1.0537 -3.34439,1.6035 -1.87836,0.5497 -4.0316,0.5497 h -15.71406 v -32.5276 h 17.40916 q 1.69511,0 3.06951,0.733 1.37441,0.733 2.3365,1.9242 0.96208,1.1453 1.46603,2.6571 0.54977,1.4661 0.54977,2.9779 0,2.3823 -1.19116,4.4898 -1.19115,2.0616 -3.48183,3.0695 2.79463,0.8246 4.3981,2.9779 1.64929,2.1074 1.64929,5.3143 z m -6.36809,-1.1911 q 0,-0.8705 -0.32069,-1.6493 -0.27488,-0.8247 -0.77883,-1.4202 -0.50395,-0.5956 -1.19116,-0.9163 -0.6872,-0.3665 -1.51185,-0.3665 h -9.71248 v 8.5671 h 9.39179 q 0.87046,0 1.60348,-0.3207 0.77883,-0.3207 1.32859,-0.8704 0.54976,-0.5956 0.87046,-1.3744 0.32069,-0.7789 0.32069,-1.6493 z m -13.51501,-17.5466 v 8.2006 h 8.4297 q 1.60348,0 2.70301,-1.0995 1.14534,-1.0995 1.14534,-3.0237 0,-1.8784 -1.05372,-2.9779 -1.0079,-1.0995 -2.51974,-1.0995 z"
           style="font-weight:bold;font-family:Raleway;-inkscape-font-specification:Raleway"
           id="path12737" />
        <path
           d="m 603.08733,1401.3552 v -24.0063 h 6.13903 v 24.0063 z m 0,-27.3507 v -6.0932 h 6.13903 v 6.0932 z"
           style="font-weight:bold;font-family:Raleway;-inkscape-font-specification:Raleway"
           id="path12739" />
        <path
           d="m 626.45222,1401.3552 h -6.09321 v -18.6919 h -7.51343 v -5.3144 h 21.07425 v 5.3144 h -7.46761 z"
           style="font-weight:bold;font-family:Raleway;-inkscape-font-specification:Raleway"
           id="path12741" />
        <path
           d="m 643.58647,1401.8134 q -1.74092,0 -3.25277,-0.5498 -1.51185,-0.5956 -2.61137,-1.6035 -1.09953,-1.0537 -1.74092,-2.4281 -0.59558,-1.3744 -0.59558,-3.0237 0,-1.6951 0.73302,-3.1153 0.77883,-1.4661 2.10743,-2.474 1.3744,-1.0079 3.25276,-1.5576 1.87836,-0.5956 4.12323,-0.5956 1.60347,0 3.11532,0.2749 1.55766,0.2749 2.74882,0.7788 v -1.3744 q 0,-2.3823 -1.37441,-3.6651 -1.3286,-1.2828 -3.98578,-1.2828 -1.92418,0 -3.75672,0.6872 -1.83254,0.6872 -3.75671,2.0158 l -1.87836,-3.8941 q 4.62717,-3.0695 9.98736,-3.0695 5.17694,0 8.01738,2.5655 2.88626,2.5198 2.88626,7.3302 v 7.4676 q 0,0.9621 0.32069,1.3744 0.36651,0.4124 1.14534,0.4582 v 5.2227 q -1.55766,0.3207 -2.703,0.3207 -1.74091,0 -2.703,-0.7788 -0.91627,-0.7788 -1.14534,-2.0616 l -0.13744,-1.3286 q -1.60348,2.1074 -3.89416,3.2069 -2.29068,1.0996 -4.90205,1.0996 z m 1.74091,-4.4898 q 1.55767,0 2.93207,-0.5497 1.42023,-0.5498 2.19906,-1.4661 1.0079,-0.7788 1.0079,-1.7409 v -2.7488 q -1.09953,-0.4123 -2.38231,-0.6414 -1.28278,-0.2749 -2.47393,-0.2749 -2.38231,0 -3.89416,1.0996 -1.51185,1.0537 -1.51185,2.703 0,1.5576 1.19115,2.6113 1.19116,1.0079 2.93207,1.0079 z"
           style="font-weight:bold;font-family:Raleway;-inkscape-font-specification:Raleway"
           id="path12743" />
        <path
           d="m 674.51057,1401.7675 q -2.84044,0 -5.17694,-0.962 -2.33649,-1.0079 -3.98578,-2.703 -1.64929,-1.741 -2.56556,-3.9858 -0.87046,-2.2449 -0.87046,-4.8105 0,-2.4739 0.87046,-4.7188 0.87046,-2.2448 2.51975,-3.9399 1.64929,-1.7409 3.98578,-2.7488 2.38231,-1.0079 5.36019,-1.0079 3.57346,0 6.18484,1.5118 2.65719,1.5119 3.93997,3.8484 l -4.44392,3.0237 q -0.45814,-0.8705 -1.14534,-1.5119 -0.64139,-0.6414 -1.42022,-1.0537 -0.77883,-0.4123 -1.60348,-0.5956 -0.82464,-0.2291 -1.55766,-0.2291 -1.28278,0 -2.33649,0.4582 -1.0079,0.4123 -1.83255,1.1911 -0.77883,0.7331 -1.32859,1.6951 -0.54977,0.9621 -0.82465,2.0616 h 9.16272 v 4.0316 h -9.1169 q 0.50395,2.4282 2.15323,3.9858 1.69511,1.5119 4.0316,1.5119 0.82465,0 1.64929,-0.2291 0.87046,-0.2291 1.64929,-0.6414 0.77883,-0.4581 1.37441,-1.0995 0.64139,-0.6872 1.0079,-1.5119 l 4.90205,2.7489 q -0.54976,1.3744 -1.64929,2.4281 -1.09952,1.0537 -2.56556,1.7867 -1.42022,0.6872 -3.06951,1.0537 -1.64929,0.4123 -3.29858,0.4123 z"
           style="font-weight:bold;font-family:Raleway;-inkscape-font-specification:Raleway"
           id="path12745" />
        <path
           d="m 702.22771,1390.1309 7.10111,-12.782 h 6.27646 v 24.0063 h -5.86414 v -14.4313 l -6.09321,10.8121 h -2.88626 l -6.0932,-10.8121 v 14.4313 h -5.86415 v -24.0063 h 6.32228 z"
           style="font-weight:bold;font-family:Raleway;-inkscape-font-specification:Raleway"
           id="path12747" />
        <path
           d="m 732.37299,1401.8134 q -2.93207,0 -5.26856,-1.0079 -2.3365,-1.0079 -3.98579,-2.703 -1.60347,-1.741 -2.47393,-3.9858 -0.87046,-2.2449 -0.87046,-4.7188 0,-2.5198 0.87046,-4.7646 0.87046,-2.2449 2.47393,-3.94 1.64929,-1.7409 3.98579,-2.7488 2.33649,-1.0079 5.26856,-1.0079 2.93207,0 5.22275,1.0079 2.33649,1.0079 3.93997,2.7488 1.64929,1.6951 2.51975,3.94 0.87046,2.2448 0.87046,4.7646 0,2.4739 -0.87046,4.7188 -0.87046,2.2448 -2.47394,3.9858 -1.60347,1.6951 -3.93997,2.703 -2.33649,1.0079 -5.26856,1.0079 z m -6.27646,-12.4155 q 0,1.6035 0.45813,2.932 0.50395,1.2828 1.3286,2.2449 0.87046,0.9621 2.0158,1.5119 1.14534,0.5039 2.47393,0.5039 1.3286,0 2.47394,-0.5039 1.14534,-0.5498 1.96998,-1.5119 0.87046,-0.9621 1.32859,-2.2907 0.50395,-1.3286 0.50395,-2.932 0,-1.5577 -0.50395,-2.8863 -0.45813,-1.3286 -1.32859,-2.2907 -0.82464,-0.9621 -1.96998,-1.466 -1.14534,-0.5498 -2.47394,-0.5498 -1.32859,0 -2.47393,0.5498 -1.14534,0.5498 -2.0158,1.5118 -0.82465,0.9621 -1.3286,2.2907 -0.45813,1.3286 -0.45813,2.8863 z"
           style="font-weight:bold;font-family:Raleway;-inkscape-font-specification:Raleway"
           id="path12749" />
        <path
           d="m 750.24025,1389.123 v -20.6161 h 6.13903 v 20.6161 z m 0,12.2322 v -6.9178 h 6.13903 v 6.9178 z"
           style="font-weight:bold;font-family:Raleway;-inkscape-font-specification:Raleway"
           id="path12751" />
      </g>
      <g
         aria-label="Давайте налаштуємо
           декілька речей…"
         id="text115541"
         style="font-size:5.02259px;line-height:1.25;font-family:'Roboto Condensed';-inkscape-font-specification:'Roboto Condensed, ';fill:#386582;stroke-width:0.125564">
        <path
           d="m 36.271083,59.711221 h 0.125565 q 0.145655,-0.005 0.256152,-0.08538 0.110497,-0.08036 0.195881,-0.296333 0.08538,-0.215971 0.150678,-0.592665 0.06529,-0.381717 0.120542,-0.979406 l 0.09041,-1.004518 h 2.159714 v 2.958306 h 0.527372 v 1.496732 H 39.249479 V 60.318954 H 36.92402 v 0.888999 h -0.652937 z m 2.405821,0 v -2.350572 h -0.838772 l -0.05023,0.54244 q -0.06027,0.69814 -0.170768,1.135105 -0.105475,0.436965 -0.276243,0.673027 z"
           style="font-weight:bold;font-family:Raleway;-inkscape-font-specification:Raleway"
           id="path12772" />
        <path
           d="m 41.012409,60.36918 q -0.190859,0 -0.356604,-0.06027 -0.165746,-0.06529 -0.286288,-0.17579 -0.120542,-0.11552 -0.190858,-0.266198 -0.06529,-0.150677 -0.06529,-0.331491 0,-0.185835 0.08036,-0.341536 0.08538,-0.160723 0.231039,-0.27122 0.150678,-0.110497 0.356604,-0.170768 0.205927,-0.06529 0.452033,-0.06529 0.175791,0 0.341537,0.03014 0.170768,0.03014 0.301355,0.08538 v -0.150677 q 0,-0.261175 -0.150678,-0.401808 -0.145655,-0.140632 -0.436965,-0.140632 -0.210949,0 -0.411852,0.07534 -0.200904,0.07534 -0.411853,0.220994 L 40.25902,57.978427 q 0.507282,-0.336513 1.094925,-0.336513 0.567552,0 0.878953,0.281265 0.316423,0.276242 0.316423,0.803614 v 0.818683 q 0,0.105474 0.03516,0.150677 0.04018,0.0452 0.125565,0.05023 v 0.572575 q -0.170768,0.03516 -0.296333,0.03516 -0.190858,0 -0.296333,-0.08538 -0.100451,-0.08538 -0.125564,-0.226017 l -0.01507,-0.145655 q -0.175791,0.231039 -0.42692,0.351581 -0.25113,0.120542 -0.537417,0.120542 z m 0.190858,-0.492213 q 0.170768,0 0.321446,-0.06027 0.1557,-0.06027 0.241084,-0.160722 0.110497,-0.08538 0.110497,-0.190859 v -0.301355 q -0.120542,-0.0452 -0.261175,-0.07032 -0.140632,-0.03014 -0.27122,-0.03014 -0.261174,0 -0.42692,0.120542 -0.165745,0.11552 -0.165745,0.296333 0,0.170768 0.130587,0.286288 0.130588,0.110497 0.321446,0.110497 z"
           style="font-weight:bold;font-family:Raleway;-inkscape-font-specification:Raleway"
           id="path12774" />
        <path
           d="m 44.759252,57.687117 q 0.145655,0 0.266198,0.05525 0.120542,0.05023 0.205926,0.140632 0.09041,0.09041 0.13561,0.210949 0.05023,0.120542 0.05023,0.256152 0,0.170768 -0.09041,0.346559 -0.09041,0.170768 -0.296333,0.256152 0.231039,0.06529 0.361627,0.226017 0.13561,0.1557 0.13561,0.42692 0,0.361626 -0.25113,0.537417 -0.251129,0.17579 -0.693117,0.17579 h -1.381213 v -2.631837 z m -0.316423,1.099947 q 0.140633,0 0.226017,-0.08036 0.08538,-0.08036 0.08538,-0.231039 0,-0.125565 -0.07534,-0.210949 -0.07032,-0.09041 -0.215972,-0.09041 h -0.592665 v 0.612756 z m 0.09041,1.044699 q 0.145655,0 0.231039,-0.09543 0.09041,-0.09543 0.09041,-0.231039 0,-0.140633 -0.08538,-0.231039 -0.08538,-0.09543 -0.231039,-0.09543 h -0.668004 v 0.652936 z"
           style="font-weight:bold;font-family:Raleway;-inkscape-font-specification:Raleway"
           id="path12776" />
        <path
           d="m 46.702991,60.36918 q -0.190858,0 -0.356604,-0.06027 -0.165745,-0.06529 -0.286287,-0.17579 -0.120542,-0.11552 -0.190859,-0.266198 -0.06529,-0.150677 -0.06529,-0.331491 0,-0.185835 0.08036,-0.341536 0.08538,-0.160723 0.231039,-0.27122 0.150678,-0.110497 0.356604,-0.170768 0.205926,-0.06529 0.452033,-0.06529 0.175791,0 0.341536,0.03014 0.170768,0.03014 0.301356,0.08538 v -0.150677 q 0,-0.261175 -0.150678,-0.401808 -0.145655,-0.140632 -0.436965,-0.140632 -0.210949,0 -0.411853,0.07534 -0.200903,0.07534 -0.411852,0.220994 l -0.205926,-0.426921 q 0.507281,-0.336513 1.094924,-0.336513 0.567553,0 0.878954,0.281265 0.316423,0.276242 0.316423,0.803614 v 0.818683 q 0,0.105474 0.03516,0.150677 0.04018,0.0452 0.125565,0.05023 v 0.572575 q -0.170768,0.03516 -0.296333,0.03516 -0.190859,0 -0.296333,-0.08538 -0.100452,-0.08538 -0.125565,-0.226017 l -0.01507,-0.145655 q -0.175791,0.231039 -0.426921,0.351581 -0.251129,0.120542 -0.537417,0.120542 z m 0.190859,-0.492213 q 0.170768,0 0.321445,-0.06027 0.155701,-0.06027 0.241085,-0.160722 0.110497,-0.08538 0.110497,-0.190859 v -0.301355 q -0.120542,-0.0452 -0.261175,-0.07032 -0.140632,-0.03014 -0.27122,-0.03014 -0.261174,0 -0.42692,0.120542 -0.165745,0.11552 -0.165745,0.296333 0,0.170768 0.130587,0.286288 0.130587,0.110497 0.321446,0.110497 z"
           style="font-weight:bold;font-family:Raleway;-inkscape-font-specification:Raleway"
           id="path12778" />
        <path
           d="m 50.972184,56.652464 q -0.01004,0.316423 -0.236061,0.497236 -0.226017,0.175791 -0.592666,0.175791 -0.366649,0 -0.592666,-0.175791 -0.226016,-0.180813 -0.236061,-0.497236 h 0.371671 q 0.005,0.190858 0.120543,0.281265 0.120542,0.09041 0.336513,0.09041 0.431943,0 0.462078,-0.371671 z m -1.41637,2.707176 1.245602,-1.672523 h 0.497237 v 2.631837 h -0.668005 v -1.627319 l -1.230534,1.627319 H 48.88781 v -2.631837 h 0.668004 z"
           style="font-weight:bold;font-family:Raleway;-inkscape-font-specification:Raleway"
           id="path12780" />
        <path
           d="m 53.192164,60.318954 h -0.668005 v -2.049216 h -0.823705 v -0.582621 h 2.310392 v 0.582621 h -0.818682 z"
           style="font-weight:bold;font-family:Raleway;-inkscape-font-specification:Raleway"
           id="path12782" />
        <path
           d="m 55.497523,60.36918 q -0.316423,0 -0.572575,-0.105474 -0.256153,-0.110497 -0.436966,-0.296333 -0.180813,-0.185836 -0.281265,-0.431943 -0.09543,-0.246107 -0.09543,-0.517326 0,-0.281265 0.09543,-0.527372 0.09543,-0.25113 0.276243,-0.436966 0.180813,-0.190858 0.436965,-0.301355 0.261175,-0.110497 0.58262,-0.110497 0.321446,0 0.572576,0.110497 0.256152,0.110497 0.431942,0.296333 0.180814,0.185836 0.27122,0.431942 0.09543,0.246107 0.09543,0.512305 0,0.06529 -0.005,0.125564 0,0.06027 -0.01004,0.100452 h -2.034149 q 0.01507,0.155701 0.07534,0.276243 0.06027,0.120542 0.1557,0.205926 0.09543,0.08538 0.215971,0.130587 0.120542,0.0452 0.25113,0.0452 0.200903,0 0.376694,-0.09543 0.180813,-0.100451 0.246107,-0.261174 l 0.577598,0.160723 q -0.145655,0.301355 -0.467101,0.497236 -0.316423,0.190858 -0.758411,0.190858 z m 0.683072,-1.587138 q -0.02511,-0.296333 -0.220994,-0.472124 -0.190858,-0.180813 -0.467101,-0.180813 -0.13561,0 -0.256152,0.05023 -0.115519,0.0452 -0.205926,0.130587 -0.09041,0.08538 -0.150678,0.205927 -0.05525,0.120542 -0.06529,0.266197 z"
           style="font-weight:bold;font-family:Raleway;-inkscape-font-specification:Raleway"
           id="path12784" />
        <path
           d="m 59.16903,58.68159 h 1.044699 v -0.994473 h 0.668005 v 2.631837 H 60.213729 V 59.254165 H 59.16903 v 1.064789 h -0.668004 v -2.631837 h 0.668004 z"
           style="font-weight:bold;font-family:Raleway;-inkscape-font-specification:Raleway"
           id="path12786" />
        <path
           d="m 62.217737,60.36918 q -0.190858,0 -0.356604,-0.06027 -0.165745,-0.06529 -0.286288,-0.17579 -0.120542,-0.11552 -0.190858,-0.266198 -0.06529,-0.150677 -0.06529,-0.331491 0,-0.185835 0.08036,-0.341536 0.08538,-0.160723 0.231039,-0.27122 0.150678,-0.110497 0.356604,-0.170768 0.205926,-0.06529 0.452033,-0.06529 0.175791,0 0.341536,0.03014 0.170768,0.03014 0.301355,0.08538 v -0.150677 q 0,-0.261175 -0.150677,-0.401808 -0.145655,-0.140632 -0.436966,-0.140632 -0.210948,0 -0.411852,0.07534 -0.200904,0.07534 -0.411852,0.220994 l -0.205927,-0.426921 q 0.507282,-0.336513 1.094925,-0.336513 0.567553,0 0.878953,0.281265 0.316424,0.276242 0.316424,0.803614 v 0.818683 q 0,0.105474 0.03516,0.150677 0.04018,0.0452 0.125564,0.05023 v 0.572575 q -0.170768,0.03516 -0.296332,0.03516 -0.190859,0 -0.296333,-0.08538 -0.100452,-0.08538 -0.125565,-0.226017 l -0.01507,-0.145655 q -0.17579,0.231039 -0.42692,0.351581 -0.251129,0.120542 -0.537417,0.120542 z m 0.190858,-0.492213 q 0.170768,0 0.321446,-0.06027 0.1557,-0.06027 0.241085,-0.160722 0.110496,-0.08538 0.110496,-0.190859 v -0.301355 q -0.120542,-0.0452 -0.261174,-0.07032 -0.140633,-0.03014 -0.27122,-0.03014 -0.261175,0 -0.42692,0.120542 -0.165746,0.11552 -0.165746,0.296333 0,0.170768 0.130588,0.286288 0.130587,0.110497 0.321445,0.110497 z"
           style="font-weight:bold;font-family:Raleway;-inkscape-font-specification:Raleway"
           id="path12788" />
        <path
           d="m 64.126313,59.746379 q 0.145655,-0.01004 0.236062,-0.06027 0.09543,-0.05023 0.1557,-0.185836 0.06529,-0.13561 0.105474,-0.371671 0.0452,-0.241085 0.09041,-0.627824 l 0.09041,-0.81366 h 1.843291 v 2.631837 h -0.668004 v -2.069307 h -0.587644 l -0.05022,0.396785 q -0.06027,0.497236 -0.145656,0.823705 -0.08538,0.321446 -0.220993,0.512304 -0.130588,0.190858 -0.326469,0.27122 -0.195881,0.07534 -0.482169,0.08538 z"
           style="font-weight:bold;font-family:Raleway;-inkscape-font-specification:Raleway"
           id="path12790" />
        <path
           d="m 67.988685,60.36918 q -0.190858,0 -0.356604,-0.06027 -0.165745,-0.06529 -0.286287,-0.17579 -0.120542,-0.11552 -0.190859,-0.266198 -0.06529,-0.150677 -0.06529,-0.331491 0,-0.185835 0.08036,-0.341536 0.08538,-0.160723 0.231039,-0.27122 0.150678,-0.110497 0.356604,-0.170768 0.205926,-0.06529 0.452033,-0.06529 0.175791,0 0.341536,0.03014 0.170769,0.03014 0.301356,0.08538 v -0.150677 q 0,-0.261175 -0.150678,-0.401808 -0.145655,-0.140632 -0.436965,-0.140632 -0.210949,0 -0.411853,0.07534 -0.200903,0.07534 -0.411852,0.220994 l -0.205926,-0.426921 q 0.507281,-0.336513 1.094925,-0.336513 0.567552,0 0.878953,0.281265 0.316423,0.276242 0.316423,0.803614 v 0.818683 q 0,0.105474 0.03516,0.150677 0.04018,0.0452 0.125565,0.05023 v 0.572575 q -0.170768,0.03516 -0.296333,0.03516 -0.190858,0 -0.296333,-0.08538 -0.100452,-0.08538 -0.125565,-0.226017 l -0.01507,-0.145655 q -0.175791,0.231039 -0.42692,0.351581 -0.25113,0.120542 -0.537418,0.120542 z m 0.190859,-0.492213 q 0.170768,0 0.321446,-0.06027 0.1557,-0.06027 0.241084,-0.160722 0.110497,-0.08538 0.110497,-0.190859 v -0.301355 q -0.120542,-0.0452 -0.261175,-0.07032 -0.140632,-0.03014 -0.27122,-0.03014 -0.261174,0 -0.42692,0.120542 -0.165745,0.11552 -0.165745,0.296333 0,0.170768 0.130587,0.286288 0.130587,0.110497 0.321446,0.110497 z"
           style="font-weight:bold;font-family:Raleway;-inkscape-font-specification:Raleway"
           id="path12792" />
        <path
           d="m 70.173502,60.318954 v -2.631837 h 0.668004 v 2.049217 h 0.733298 v -2.049217 h 0.668005 v 2.049217 h 0.733298 v -2.049217 h 0.668005 v 2.631837 z"
           style="font-weight:bold;font-family:Raleway;-inkscape-font-specification:Raleway"
           id="path12794" />
        <path
           d="m 75.537626,60.318954 h -0.668004 v -2.049216 h -0.823705 v -0.582621 h 2.310392 v 0.582621 h -0.818683 z"
           style="font-weight:bold;font-family:Raleway;-inkscape-font-specification:Raleway"
           id="path12796" />
        <path
           d="m 76.823405,60.791078 q 0.08538,0.05023 0.160723,0.07032 0.08036,0.02009 0.150678,0.02009 0.125565,0 0.215971,-0.125565 0.09041,-0.120542 0.160723,-0.436966 l -1.039676,-2.631837 h 0.693118 l 0.713207,2.049217 0.632847,-2.049217 h 0.632846 l -1.034654,2.973374 q -0.150677,0.431942 -0.371671,0.617778 -0.215972,0.185836 -0.532395,0.185836 -0.115519,0 -0.205926,-0.02009 -0.09041,-0.02009 -0.175791,-0.07534 z"
           style="font-weight:bold;font-family:Raleway;-inkscape-font-specification:Raleway"
           id="path12798" />
        <path
           d="m 80.635542,60.364158 q -0.311401,0 -0.567553,-0.105475 -0.256152,-0.110497 -0.436965,-0.296332 -0.180813,-0.190859 -0.281265,-0.436966 -0.09543,-0.246107 -0.09543,-0.527372 0,-0.27122 0.09543,-0.517327 0.09543,-0.246106 0.276242,-0.431942 0.180813,-0.190859 0.436966,-0.301356 0.261174,-0.110497 0.587643,-0.110497 0.391762,0 0.678049,0.165746 0.291311,0.165745 0.431943,0.421897 l -0.487191,0.331491 q -0.05023,-0.09543 -0.125565,-0.165745 -0.07032,-0.07032 -0.1557,-0.11552 -0.08538,-0.0452 -0.175791,-0.06529 -0.09041,-0.02511 -0.170768,-0.02511 -0.140632,0 -0.256152,0.05023 -0.110497,0.0452 -0.200904,0.130587 -0.08538,0.08036 -0.145655,0.185836 -0.06027,0.105474 -0.09041,0.226016 h 1.004518 v 0.441988 h -0.999496 q 0.05525,0.266198 0.236062,0.436966 0.185836,0.165745 0.441988,0.165745 0.09041,0 0.180813,-0.02511 0.09543,-0.02511 0.180813,-0.07032 0.08538,-0.05023 0.150678,-0.120542 0.07032,-0.07534 0.110497,-0.165746 l 0.537417,0.301356 q -0.06027,0.150677 -0.180813,0.266197 -0.120542,0.115519 -0.281265,0.195881 -0.1557,0.07534 -0.336514,0.115519 -0.180813,0.0452 -0.361626,0.0452 z"
           style="font-weight:bold;font-family:Raleway;-inkscape-font-specification:Raleway"
           id="path12800" />
        <path
           d="m 83.6742,59.08842 0.778502,-1.401303 h 0.688094 v 2.631837 H 84.497905 V 58.736839 L 83.8299,59.92217 h -0.316423 l -0.668004,-1.185331 v 1.582115 h -0.642892 v -2.631837 h 0.693118 z"
           style="font-weight:bold;font-family:Raleway;-inkscape-font-specification:Raleway"
           id="path12802" />
        <path
           d="m 86.979055,60.36918 q -0.321445,0 -0.577598,-0.110497 -0.256152,-0.110497 -0.436965,-0.296332 -0.175791,-0.190859 -0.27122,-0.436966 -0.09543,-0.246107 -0.09543,-0.517327 0,-0.276242 0.09543,-0.522349 0.09543,-0.246107 0.27122,-0.431943 0.180813,-0.190858 0.436965,-0.301355 0.256153,-0.110497 0.577598,-0.110497 0.321446,0 0.572576,0.110497 0.256152,0.110497 0.431942,0.301355 0.180814,0.185836 0.276243,0.431943 0.09543,0.246107 0.09543,0.522349 0,0.27122 -0.09543,0.517327 -0.09543,0.246107 -0.27122,0.436966 -0.175791,0.185835 -0.431943,0.296332 -0.256152,0.110497 -0.577598,0.110497 z m -0.688094,-1.361122 q 0,0.175791 0.05022,0.321446 0.05525,0.140633 0.145656,0.246107 0.09543,0.105475 0.220993,0.165746 0.125565,0.05525 0.27122,0.05525 0.145655,0 0.27122,-0.05525 0.125565,-0.06027 0.215972,-0.165746 0.09543,-0.105474 0.145655,-0.251129 0.05525,-0.145655 0.05525,-0.321446 0,-0.170768 -0.05525,-0.316423 -0.05023,-0.145655 -0.145655,-0.25113 -0.09041,-0.105474 -0.215972,-0.160723 -0.125565,-0.06027 -0.27122,-0.06027 -0.145655,0 -0.27122,0.06027 -0.125564,0.06027 -0.220993,0.165746 -0.09041,0.105474 -0.145656,0.251129 -0.05022,0.145655 -0.05022,0.316423 z"
           style="font-weight:bold;font-family:Raleway;-inkscape-font-specification:Raleway"
           id="path12804" />
        <path
           d="m 49.520664,66.269124 h 0.140632 q 0.120542,-0.01507 0.195881,-0.07534 0.08036,-0.06529 0.13561,-0.200904 0.06027,-0.140632 0.09543,-0.371671 0.04018,-0.23104 0.08036,-0.587643 l 0.09041,-0.81366 h 1.84329 v 2.049217 h 0.351581 v 1.336009 h -0.597688 v -0.753389 h -1.757906 v 0.753389 h -0.577598 z m 1.913607,0 v -1.486687 h -0.587643 l -0.05023,0.396785 q -0.05023,0.40683 -0.125565,0.662982 -0.07032,0.256152 -0.180813,0.42692 z"
           style="font-weight:bold;font-family:Raleway;-inkscape-font-specification:Raleway"
           id="path12806" />
        <path
           d="m 54.101262,66.90197 q -0.316424,0 -0.572576,-0.105474 -0.256152,-0.110497 -0.436965,-0.296333 -0.180813,-0.185836 -0.281265,-0.431943 -0.09543,-0.246107 -0.09543,-0.517327 0,-0.281265 0.09543,-0.527372 0.09543,-0.251129 0.276242,-0.436965 0.180814,-0.190858 0.436966,-0.301355 0.261174,-0.110497 0.58262,-0.110497 0.321446,0 0.572576,0.110497 0.256152,0.110497 0.431942,0.296332 0.180814,0.185836 0.27122,0.431943 0.09543,0.246107 0.09543,0.512304 0,0.06529 -0.005,0.125565 0,0.06027 -0.01004,0.100452 h -2.034149 q 0.01507,0.1557 0.07534,0.276242 0.06027,0.120543 0.155701,0.205927 0.09543,0.08538 0.215971,0.130587 0.120542,0.0452 0.25113,0.0452 0.200903,0 0.376694,-0.09543 0.180813,-0.100452 0.246107,-0.261175 l 0.577598,0.160723 q -0.145655,0.301356 -0.467101,0.497237 -0.316423,0.190858 -0.758411,0.190858 z m 0.683072,-1.587138 q -0.02511,-0.296333 -0.220994,-0.472124 -0.190858,-0.180813 -0.467101,-0.180813 -0.13561,0 -0.256152,0.05023 -0.11552,0.0452 -0.205926,0.130587 -0.09041,0.08538 -0.150678,0.205926 -0.05525,0.120543 -0.06529,0.266198 z"
           style="font-weight:bold;font-family:Raleway;-inkscape-font-specification:Raleway"
           id="path12808" />
        <path
           d="m 57.511595,64.219907 h 0.723253 l -1.024609,1.275738 1.10497,1.356099 h -0.763434 l -0.813659,-1.014563 h -0.175791 v 1.014563 h -0.662982 v -2.631837 h 0.662982 v 1.044699 h 0.150678 z"
           style="font-weight:bold;font-family:Raleway;-inkscape-font-specification:Raleway"
           id="path12810" />
        <path
           d="m 58.606518,66.851744 v -2.631837 h 0.673027 v 2.631837 z m 0,-2.998486 v -0.668005 h 0.673027 v 0.668005 z"
           style="font-weight:bold;font-family:Raleway;-inkscape-font-specification:Raleway"
           id="path12812" />
        <path
           d="m 59.631121,66.279169 q 0.145655,-0.01004 0.236062,-0.06027 0.09543,-0.05023 0.1557,-0.185836 0.06529,-0.13561 0.105475,-0.371672 0.0452,-0.241084 0.09041,-0.627823 l 0.09041,-0.81366 h 1.84329 v 2.631837 h -0.668004 v -2.069307 h -0.587643 l -0.05023,0.396785 q -0.06027,0.497236 -0.145655,0.823704 -0.08538,0.321446 -0.220994,0.512305 -0.130587,0.190858 -0.326468,0.27122 -0.195881,0.07534 -0.482169,0.08538 z"
           style="font-weight:bold;font-family:Raleway;-inkscape-font-specification:Raleway"
           id="path12814" />
        <path
           d="m 62.785307,64.219907 h 0.668004 v 0.83375 h 0.512304 q 0.210949,0 0.391762,0.06027 0.185836,0.05525 0.321446,0.170768 0.13561,0.110497 0.210949,0.281265 0.08036,0.165746 0.08036,0.381717 0,0.220994 -0.07534,0.391762 -0.07534,0.165746 -0.205927,0.281265 -0.130587,0.11552 -0.3114,0.175791 -0.175791,0.05525 -0.38674,0.05525 h -1.205421 z m 1.130082,2.104465 q 0.175791,0 0.276243,-0.09041 0.100452,-0.09543 0.100452,-0.276243 0,-0.180813 -0.105475,-0.276242 -0.105474,-0.100452 -0.266197,-0.100452 h -0.467101 v 0.743343 z"
           style="font-weight:bold;font-family:Raleway;-inkscape-font-specification:Raleway"
           id="path12816" />
        <path
           d="m 66.999258,64.219907 h 0.723253 l -1.024608,1.275738 1.104969,1.356099 h -0.763433 l -0.81366,-1.014563 h -0.175791 v 1.014563 h -0.662981 v -2.631837 h 0.662981 v 1.044699 h 0.150678 z"
           style="font-weight:bold;font-family:Raleway;-inkscape-font-specification:Raleway"
           id="path12818" />
        <path
           d="m 68.777248,66.90197 q -0.190858,0 -0.356604,-0.06027 -0.165745,-0.06529 -0.286287,-0.175791 -0.120543,-0.115519 -0.190859,-0.266197 -0.06529,-0.150678 -0.06529,-0.331491 0,-0.185836 0.08036,-0.341536 0.08538,-0.160723 0.231039,-0.27122 0.150678,-0.110497 0.356604,-0.170768 0.205926,-0.06529 0.452033,-0.06529 0.175791,0 0.341536,0.03014 0.170768,0.03014 0.301356,0.08538 v -0.150678 q 0,-0.261174 -0.150678,-0.401807 -0.145655,-0.140632 -0.436965,-0.140632 -0.210949,0 -0.411853,0.07534 -0.200903,0.07534 -0.411852,0.220994 l -0.205926,-0.42692 q 0.507281,-0.336513 1.094924,-0.336513 0.567553,0 0.878954,0.281265 0.316423,0.276242 0.316423,0.803614 v 0.818682 q 0,0.105475 0.03516,0.150678 0.04018,0.0452 0.125565,0.05023 v 0.572575 q -0.170768,0.03516 -0.296333,0.03516 -0.190859,0 -0.296333,-0.08538 -0.100452,-0.08538 -0.125565,-0.226016 l -0.01507,-0.145655 q -0.17579,0.231039 -0.42692,0.351581 -0.251129,0.120542 -0.537417,0.120542 z m 0.190859,-0.492214 q 0.170768,0 0.321445,-0.06027 0.155701,-0.06027 0.241085,-0.160723 0.110497,-0.08538 0.110497,-0.190858 v -0.301356 q -0.120542,-0.0452 -0.261175,-0.07032 -0.140633,-0.03014 -0.27122,-0.03014 -0.261175,0 -0.42692,0.120542 -0.165746,0.115519 -0.165746,0.296333 0,0.170768 0.130588,0.286287 0.130587,0.110497 0.321446,0.110497 z"
           style="font-weight:bold;font-family:Raleway;-inkscape-font-specification:Raleway"
           id="path12820" />
        <path
           d="m 73.744579,66.90197 q -0.3114,0 -0.542439,-0.13561 -0.23104,-0.140632 -0.361627,-0.376694 v 1.53189 h -0.673027 v -3.701649 h 0.587643 v 0.452033 q 0.145655,-0.231039 0.376694,-0.361626 0.231039,-0.13561 0.532395,-0.13561 0.266197,0 0.492214,0.110497 0.226016,0.105474 0.386739,0.29131 0.165746,0.180813 0.256152,0.431943 0.09543,0.246107 0.09543,0.522349 0,0.286288 -0.08538,0.537417 -0.08538,0.25113 -0.241084,0.436966 -0.150678,0.185835 -0.361626,0.29131 -0.210949,0.105474 -0.462079,0.105474 z m -0.226016,-0.572575 q 0.150677,0 0.276242,-0.06529 0.130588,-0.06529 0.220994,-0.17579 0.09041,-0.110497 0.140633,-0.256153 0.05023,-0.145655 0.05023,-0.301355 0,-0.165745 -0.05525,-0.306378 -0.05525,-0.145655 -0.1557,-0.251129 -0.09543,-0.105475 -0.231039,-0.165746 -0.130588,-0.06027 -0.286288,-0.06027 -0.09543,0 -0.195881,0.03516 -0.100452,0.03014 -0.185836,0.09041 -0.08538,0.06027 -0.1557,0.140632 -0.06529,0.08036 -0.100452,0.175791 v 0.617778 q 0.09041,0.226017 0.276242,0.376695 0.185836,0.145655 0.401808,0.145655 z"
           style="font-weight:bold;font-family:Raleway;-inkscape-font-specification:Raleway"
           id="path12822" />
        <path
           d="m 76.567265,66.90197 q -0.316423,0 -0.572575,-0.105474 -0.256152,-0.110497 -0.436966,-0.296333 -0.180813,-0.185836 -0.281265,-0.431943 -0.09543,-0.246107 -0.09543,-0.517327 0,-0.281265 0.09543,-0.527372 0.09543,-0.251129 0.276243,-0.436965 0.180813,-0.190858 0.436965,-0.301355 0.261175,-0.110497 0.582621,-0.110497 0.321445,0 0.572575,0.110497 0.256152,0.110497 0.431943,0.296332 0.180813,0.185836 0.27122,0.431943 0.09543,0.246107 0.09543,0.512304 0,0.06529 -0.005,0.125565 0,0.06027 -0.01005,0.100452 h -2.034149 q 0.01507,0.1557 0.07534,0.276242 0.06027,0.120543 0.1557,0.205927 0.09543,0.08538 0.215971,0.130587 0.120543,0.0452 0.25113,0.0452 0.200904,0 0.376694,-0.09543 0.180814,-0.100452 0.246107,-0.261175 l 0.577598,0.160723 q -0.145655,0.301356 -0.467101,0.497237 -0.316423,0.190858 -0.758411,0.190858 z m 0.683072,-1.587138 q -0.02511,-0.296333 -0.220994,-0.472124 -0.190858,-0.180813 -0.467101,-0.180813 -0.135609,0 -0.256152,0.05023 -0.115519,0.0452 -0.205926,0.130587 -0.09041,0.08538 -0.150678,0.205926 -0.05525,0.120543 -0.06529,0.266198 z"
           style="font-weight:bold;font-family:Raleway;-inkscape-font-specification:Raleway"
           id="path12824" />
        <path
           d="M 80.309093,66.851744 H 79.651134 V 65.91252 q -0.11552,0.04018 -0.241085,0.06027 -0.120542,0.02009 -0.306378,0.02009 -0.226016,0 -0.391762,-0.07032 -0.165745,-0.07534 -0.276242,-0.195881 -0.110497,-0.125565 -0.165746,-0.29131 -0.05525,-0.165746 -0.05525,-0.356604 v -0.858863 h 0.647914 v 0.758411 q 0,0.261175 0.105474,0.371672 0.105475,0.110497 0.296333,0.110497 0.140633,0 0.231039,-0.02511 0.09543,-0.03014 0.155701,-0.07534 v -1.140128 h 0.657959 z"
           style="font-weight:bold;font-family:Raleway;-inkscape-font-specification:Raleway"
           id="path12826" />
        <path
           d="m 82.152375,66.90197 q -0.316423,0 -0.572576,-0.105474 -0.256152,-0.110497 -0.436965,-0.296333 -0.180813,-0.185836 -0.281265,-0.431943 -0.09543,-0.246107 -0.09543,-0.517327 0,-0.281265 0.09543,-0.527372 0.09543,-0.251129 0.276243,-0.436965 0.180813,-0.190858 0.436965,-0.301355 0.261175,-0.110497 0.58262,-0.110497 0.321446,0 0.572576,0.110497 0.256152,0.110497 0.431942,0.296332 0.180814,0.185836 0.27122,0.431943 0.09543,0.246107 0.09543,0.512304 0,0.06529 -0.005,0.125565 0,0.06027 -0.01005,0.100452 h -2.034149 q 0.01507,0.1557 0.07534,0.276242 0.06027,0.120543 0.1557,0.205927 0.09543,0.08538 0.215971,0.130587 0.120542,0.0452 0.25113,0.0452 0.200903,0 0.376694,-0.09543 0.180813,-0.100452 0.246107,-0.261175 l 0.577598,0.160723 q -0.145655,0.301356 -0.467101,0.497237 -0.316423,0.190858 -0.758411,0.190858 z m 0.683072,-1.587138 q -0.02511,-0.296333 -0.220994,-0.472124 -0.190858,-0.180813 -0.467101,-0.180813 -0.13561,0 -0.256152,0.05023 -0.115519,0.0452 -0.205926,0.130587 -0.09041,0.08538 -0.150678,0.205926 -0.05525,0.120543 -0.06529,0.266198 z"
           style="font-weight:bold;font-family:Raleway;-inkscape-font-specification:Raleway"
           id="path12828" />
        <path
           d="m 86.034831,63.185253 q -0.01004,0.316424 -0.236061,0.497237 -0.226017,0.17579 -0.592666,0.17579 -0.366649,0 -0.592666,-0.17579 -0.226016,-0.180813 -0.236061,-0.497237 h 0.371671 q 0.005,0.190859 0.120542,0.281265 0.120543,0.09041 0.336514,0.09041 0.431943,0 0.462078,-0.371672 z m -1.41637,2.707177 1.245602,-1.672523 H 86.3613 v 2.631837 h -0.668005 v -1.627319 l -1.230534,1.627319 h -0.512305 v -2.631837 h 0.668005 z"
           style="font-weight:bold;font-family:Raleway;-inkscape-font-specification:Raleway"
           id="path12830" />
        <path
           d="m 86.969029,66.851744 v -0.723253 h 0.552485 v 0.723253 z m 0.944247,0 v -0.723253 h 0.552485 v 0.723253 z m 0.944247,0 v -0.723253 h 0.552485 v 0.723253 z"
           style="font-weight:bold;font-family:Raleway;-inkscape-font-specification:Raleway"
           id="path12832" />
      </g>
    </g>
  </g>
</svg>
