<?xml version="1.0" encoding="UTF-8" standalone="no"?>
<svg
   width="700.00037"
   height="220"
   viewBox="0 0 185.20843 58.208335"
   version="1.1"
   id="svg243962"
   inkscape:version="1.2-dev (bee661db15, 2021-04-18)"
   sodipodi:docname="start-welcome.ja.svg"
   inkscape:export-filename="/home/doctormo/Projects/inkscape/inkscape/share/screens/start-welcome.png"
   inkscape:export-xdpi="96"
   inkscape:export-ydpi="96"
   xmlns:inkscape="http://www.inkscape.org/namespaces/inkscape"
   xmlns:sodipodi="http://sodipodi.sourceforge.net/DTD/sodipodi-0.dtd"
   xmlns="http://www.w3.org/2000/svg"
   xmlns:svg="http://www.w3.org/2000/svg">
  <sodipodi:namedview
     id="namedview243964"
     pagecolor="#ffffff"
     bordercolor="#666666"
     borderopacity="1.0"
     objecttolerance="10.0"
     gridtolerance="10.0"
     guidetolerance="10.0"
     inkscape:pageshadow="2"
     inkscape:pageopacity="0.0"
     inkscape:pagecheckerboard="0"
     inkscape:document-units="px"
     showgrid="false"
     units="px"
     inkscape:zoom="0.76099322"
     inkscape:cx="411.96162"
     inkscape:cy="-145.20497"
     inkscape:window-width="1534"
     inkscape:window-height="843"
     inkscape:window-x="66"
     inkscape:window-y="20"
     inkscape:window-maximized="1"
     inkscape:current-layer="layer3"
     showborder="true"
     inkscape:showpageshadow="false" />
  <defs
     id="defs243959" />
  <g
     inkscape:label="Layer 1"
     inkscape:groupmode="layer"
     id="layer1"
     transform="translate(-18.957616,-31.677996)">
    <g
       inkscape:groupmode="layer"
       id="layer3"
       inkscape:label="Text"
       style="display:inline">
      <g
         aria-label="ようこそ！"
         id="text118971"
         style="font-size:12.1215px;line-height:1.25;font-family:'Roboto Condensed';-inkscape-font-specification:'Roboto Condensed, ';fill:#386582;stroke-width:0.303038">
        <path
           d="m 36.916195,50.971042 c 0,-0.521224 0.56971,-0.848505 1.515187,-0.848505 0.339402,0 0.678804,0.03636 0.993963,0.08485 0.01212,0.169701 0.01212,0.315159 0.01212,0.424252 0,0.812141 -0.278795,1.151543 -1.054571,1.151543 -0.848505,0 -1.466701,-0.218187 -1.466701,-0.812141 z m 4.060702,-8.169891 h -1.830346 c 0.07273,0.303038 0.109093,0.824262 0.133336,1.418216 0.01212,0.521224 0.01212,1.236393 0.01212,1.975804 0,0.64244 0.04849,1.672767 0.08485,2.618244 -0.230308,-0.02424 -0.472738,-0.03636 -0.715168,-0.03636 -2.230356,0 -3.30917,1.006084 -3.30917,2.26672 0,1.648524 1.418216,2.218235 3.15159,2.218235 2.036412,0 2.58188,-1.018206 2.58188,-2.09702 0,-0.121215 0,-0.266673 -0.01212,-0.424252 1.078814,0.496981 1.987926,1.21215 2.678852,1.903075 l 0.933355,-1.442458 c -0.836383,-0.775776 -2.145505,-1.624281 -3.684936,-2.072777 -0.06061,-0.896991 -0.109093,-1.866711 -0.133336,-2.594001 0.981841,-0.02424 2.412178,-0.08485 3.430384,-0.169701 l -0.04849,-1.442458 c -1.006084,0.121215 -2.4243,0.169701 -3.39402,0.181822 0,-0.315159 0,-0.606075 0.01212,-0.884869 0.01212,-0.472739 0.04849,-1.066692 0.109093,-1.418216 z"
           style="font-weight:bold;font-family:Raleway;-inkscape-font-specification:Raleway"
           id="path43627" />
        <path
           d="m 54.492347,48.558864 c 0,1.890954 -1.93944,2.884917 -4.945572,3.224319 l 0.872748,1.503066 c 3.369777,-0.460617 5.769834,-2.072777 5.769834,-4.666778 0,-1.903075 -1.345487,-2.99401 -3.260684,-2.99401 -1.418215,0 -2.775823,0.351523 -3.660693,0.557589 -0.400009,0.08485 -0.921234,0.169701 -1.333365,0.206065 l 0.460617,1.733375 c 0.351524,-0.133337 0.824262,-0.327281 1.175786,-0.424253 0.618196,-0.181822 1.818225,-0.593953 3.15159,-0.593953 1.139421,0 1.769739,0.654561 1.769739,1.45458 z m -4.76375,-5.81832 -0.24243,1.45458 c 1.393973,0.24243 4.024338,0.48486 5.442554,0.581832 l 0.24243,-1.490945 c -1.284879,-0.01212 -4.03646,-0.24243 -5.442554,-0.545467 z"
           style="font-weight:bold;font-family:Raleway;-inkscape-font-specification:Raleway"
           id="path43629" />
        <path
           d="m 60.953083,43.710264 v 1.600038 c 0.981842,0.08485 2.036412,0.133336 3.30917,0.133336 1.151542,0 2.654608,-0.07273 3.503113,-0.145458 v -1.612159 c -0.933355,0.09697 -2.315206,0.169701 -3.515235,0.169701 -1.272757,0 -2.400057,-0.04849 -3.297048,-0.145458 z m 1.018206,5.139516 -1.587916,-0.145458 c -0.09697,0.448495 -0.24243,1.042449 -0.24243,1.745496 0,1.660645 1.393972,2.594001 4.169796,2.594001 1.69701,0 3.15159,-0.15758 4.20616,-0.412131 l -0.01212,-1.709132 c -1.066692,0.303038 -2.618244,0.48486 -4.254647,0.48486 -1.745496,0 -2.484907,-0.557589 -2.484907,-1.333365 0,-0.412131 0.08485,-0.787897 0.206064,-1.224271 z"
           style="font-weight:bold;font-family:Raleway;-inkscape-font-specification:Raleway"
           id="path43631" />
        <path
           d="m 73.401843,43.249647 0.07273,1.551552 c 0.387888,-0.04849 0.787898,-0.08485 1.090935,-0.109094 0.496982,-0.04849 1.987926,-0.121215 2.484908,-0.157579 -0.751533,0.666682 -2.327328,2.048533 -3.406142,2.75158 -0.642439,0.07273 -1.490944,0.181823 -2.133384,0.24243 l 0.145458,1.466702 c 1.21215,-0.206066 2.569758,-0.387888 3.684936,-0.48486 -0.460617,0.424252 -0.884869,1.175785 -0.884869,1.915197 0,2.02429 1.806103,2.957646 4.909207,2.824309 l 0.327281,-1.587916 c -0.460617,0.03636 -1.175786,0.03636 -1.85459,-0.03637 -1.078813,-0.121215 -1.830346,-0.496981 -1.830346,-1.45458 0,-0.993963 0.921234,-1.78186 2.036412,-1.927318 0.739411,-0.109094 1.951561,-0.09697 3.115225,-0.03636 v -1.430337 c -1.478823,0 -3.490992,0.133337 -5.115273,0.290916 0.836384,-0.642439 2.024291,-1.648524 2.884917,-2.339449 0.254552,-0.206066 0.703047,-0.496982 0.957599,-0.666683 l -0.957599,-1.115178 c -0.169701,0.06061 -0.448495,0.109094 -0.836383,0.15758 -0.739412,0.07273 -3.018254,0.181822 -3.539478,0.181822 -0.412131,0 -0.763655,-0.01212 -1.151543,-0.03636 z"
           style="font-weight:bold;font-family:Raleway;-inkscape-font-specification:Raleway"
           id="path43633" />
        <path
           d="m 87.996104,49.407369 h 1.236393 l 0.327281,-4.145553 0.06061,-1.806104 h -2.012169 l 0.06061,1.806104 z m 0.618197,3.224319 c 0.606075,0 1.066692,-0.436374 1.066692,-1.066692 0,-0.64244 -0.460617,-1.078814 -1.066692,-1.078814 -0.606075,0 -1.066692,0.436374 -1.066692,1.078814 0,0.630318 0.448495,1.066692 1.066692,1.066692 z"
           style="font-weight:bold;font-family:Raleway;-inkscape-font-specification:Raleway"
           id="path43635" />
      </g>
      <g
         aria-label="いくつか簡単に設定しましょう..."
         id="text115541"
         style="font-size:5.02259px;line-height:1.25;font-family:'Roboto Condensed';-inkscape-font-specification:'Roboto Condensed, ';fill:#386582;stroke-width:0.125564">
        <path
           d="m 26.908241,57.25697 -0.773479,-0.01005 c 0.03014,0.155701 0.04018,0.371672 0.04018,0.512305 0,0.306378 0.005,0.894021 0.05525,1.356099 0.140633,1.346054 0.617779,1.843291 1.170264,1.843291 0.401807,0 0.71823,-0.306378 1.049721,-1.180309 L 27.947918,59.16555 c -0.09543,0.401807 -0.296333,0.98945 -0.532395,0.98945 -0.316423,0 -0.4671,-0.497236 -0.537417,-1.220489 -0.03014,-0.361627 -0.03516,-0.738321 -0.03014,-1.064789 0,-0.140633 0.02511,-0.431943 0.06027,-0.612756 z m 2.511295,0.115519 -0.637869,0.205926 c 0.547462,0.622802 0.81366,1.843291 0.894021,2.651928 l 0.657959,-0.256152 c -0.05525,-0.768456 -0.436965,-2.024104 -0.914111,-2.601702 z"
           style="font-weight:bold;font-family:Raleway;-inkscape-font-specification:Raleway"
           id="path43656" />
        <path
           d="m 34.311529,57.226834 -0.587643,-0.517327 c -0.08036,0.120543 -0.241084,0.281265 -0.386739,0.426921 -0.336514,0.326468 -1.024609,0.883975 -1.421393,1.205421 -0.502259,0.421898 -0.54244,0.688095 -0.04018,1.115015 0.457056,0.391762 1.195376,1.019586 1.501754,1.336009 0.150678,0.150678 0.296333,0.311401 0.436966,0.467101 l 0.587643,-0.537417 c -0.512304,-0.497237 -1.466597,-1.250625 -1.843291,-1.567048 -0.27122,-0.236062 -0.276242,-0.29131 -0.01004,-0.52235 0.336514,-0.286287 0.999495,-0.798591 1.325964,-1.059766 0.115519,-0.09543 0.281265,-0.226017 0.436965,-0.346559 z"
           style="font-weight:bold;font-family:Raleway;-inkscape-font-specification:Raleway"
           id="path43658" />
        <path
           d="m 35.918749,58.095742 0.286287,0.703163 c 0.52235,-0.226017 1.712703,-0.728276 2.451024,-0.728276 0.602711,0 0.929179,0.361627 0.929179,0.83375 0,0.873931 -1.064789,1.265693 -2.425911,1.300851 l 0.291311,0.668005 c 1.767951,-0.09041 2.852831,-0.818683 2.852831,-1.958811 0,-0.929179 -0.713208,-1.451528 -1.622297,-1.451528 -0.733298,0 -1.757906,0.361626 -2.144646,0.482169 -0.180813,0.05022 -0.431943,0.120542 -0.617778,0.150677 z"
           style="font-weight:bold;font-family:Raleway;-inkscape-font-specification:Raleway"
           id="path43660" />
        <path
           d="m 42.990545,56.880275 -0.748365,-0.07534 c 0.005,0.316423 -0.03516,0.683072 -0.105475,1.064789 -0.256152,0.02009 -0.492214,0.03516 -0.647914,0.04018 -0.185836,0.005 -0.356604,0.01507 -0.537417,0 l 0.06027,0.683073 c 0.150678,-0.02511 0.416875,-0.06027 0.557507,-0.08538 0.09543,-0.01005 0.25113,-0.03014 0.431943,-0.05023 -0.180813,0.688095 -0.527372,1.702658 -1.014563,2.360617 l 0.652937,0.261175 c 0.462078,-0.738321 0.83375,-1.928675 1.024608,-2.692109 0.140633,-0.01004 0.266197,-0.02009 0.346559,-0.02009 0.316423,0 0.487191,0.05525 0.487191,0.457056 0,0.497236 -0.06529,1.10497 -0.200904,1.391257 -0.08036,0.165746 -0.210948,0.215972 -0.376694,0.215972 -0.13561,0 -0.421897,-0.05023 -0.617778,-0.105475 l 0.110497,0.662982 c 0.170768,0.03516 0.406829,0.07032 0.60271,0.07032 0.376695,0 0.65796,-0.110497 0.823705,-0.462078 0.215972,-0.436965 0.286288,-1.250625 0.286288,-1.84329 0,-0.723253 -0.376694,-0.959315 -0.909089,-0.959315 -0.105474,0 -0.256152,0.01004 -0.421898,0.02009 0.03516,-0.180813 0.07032,-0.366649 0.105475,-0.517327 0.02511,-0.125564 0.06027,-0.286287 0.09041,-0.416875 z m 1.727771,0.472124 -0.597688,0.256152 c 0.356604,0.441988 0.713208,1.351077 0.843795,1.908584 l 0.637869,-0.296333 c -0.150677,-0.477146 -0.572575,-1.43646 -0.883976,-1.868403 z"
           style="font-weight:bold;font-family:Raleway;-inkscape-font-specification:Raleway"
           id="path43662" />
        <path
           d="m 47.53598,58.24642 v 0.165745 H 46.747434 V 58.24642 Z m -0.788546,0.657959 v -0.170768 h 0.788546 v 0.170768 z m 1.325964,0.341536 v -1.346054 h -1.868404 v 3.380203 h 0.54244 v -2.034149 z m 0.83375,-0.341536 v -0.170768 h 0.813659 v 0.170768 z m 0.813659,-0.657959 v 0.165745 H 48.907148 V 58.24642 Z m -1.928674,2.270211 v -0.215972 h 0.83375 v 0.215972 z m 0.83375,-0.748366 v 0.210949 h -0.83375 v -0.210949 z m 1.652432,-1.868404 H 48.36973 v 1.346054 h 1.351077 v 1.431439 c 0,0.07032 -0.02511,0.09041 -0.100452,0.09041 -0.06529,0 -0.266197,0.005 -0.4671,-0.005 V 59.4368 h -1.89854 v 1.582116 h 0.537418 v -0.175791 h 1.310896 c 0.05525,0.140633 0.115519,0.311401 0.125564,0.436965 0.371672,0.005 0.637869,-0.005 0.81366,-0.09543 0.180813,-0.08036 0.236062,-0.226016 0.236062,-0.502259 z M 49.06787,56.945569 c 0.0452,-0.08538 0.08539,-0.170768 0.120543,-0.256152 l -0.572576,-0.13561 c -0.105474,0.266197 -0.276242,0.532395 -0.482168,0.748366 v -0.356604 h -1.115015 c 0.04018,-0.08036 0.08036,-0.160723 0.115519,-0.241084 l -0.557507,-0.150678 c -0.150678,0.371672 -0.431943,0.753389 -0.738321,1.004518 0.13561,0.06529 0.371672,0.226017 0.487191,0.321446 0.13561,-0.130587 0.276243,-0.296333 0.40683,-0.482169 h 0.05525 c 0.09543,0.1557 0.185835,0.341536 0.226016,0.472124 l 0.522349,-0.145655 c -0.03516,-0.09041 -0.09543,-0.210949 -0.165745,-0.326469 h 0.668005 c -0.06027,0.05525 -0.120543,0.105475 -0.180814,0.150678 0.140633,0.05525 0.396785,0.195881 0.52235,0.281265 0.130587,-0.11552 0.27122,-0.261175 0.396784,-0.431943 h 0.261175 c 0.120542,0.160723 0.246107,0.346559 0.296333,0.482169 l 0.537417,-0.150678 c -0.0452,-0.09543 -0.125565,-0.215971 -0.215971,-0.331491 h 0.828727 v -0.452033 z"
           style="font-weight:bold;font-family:Raleway;-inkscape-font-specification:Raleway"
           id="path43664" />
        <path
           d="m 51.991009,59.090215 v -0.341536 h 0.919134 v 0.341536 z m 0.919134,-0.798592 H 51.991009 V 57.95511 h 0.919134 z m 1.567048,0 H 53.522899 V 57.95511 h 0.954292 z m 0,0.798592 h -0.954292 v -0.341536 h 0.954292 z m 1.019586,0.818682 h -1.973878 v -0.326468 h 1.572071 v -2.114511 h -0.396785 c 0.150678,-0.200903 0.316423,-0.441987 0.467101,-0.683072 l -0.668005,-0.190858 c -0.100451,0.27122 -0.301355,0.622801 -0.472123,0.87393 h -0.768456 l 0.361626,-0.145655 c -0.08538,-0.210948 -0.27122,-0.522349 -0.441988,-0.748366 l -0.537417,0.200904 c 0.150678,0.215971 0.301355,0.487191 0.376694,0.693117 h -0.888998 l 0.3114,-0.150677 c -0.100451,-0.200904 -0.326468,-0.492214 -0.507281,-0.703163 l -0.512304,0.236062 c 0.145655,0.185836 0.3114,0.42692 0.416875,0.617778 h -0.421898 v 2.114511 h 1.496732 v 0.326468 h -1.93872 v 0.552485 h 1.93872 v 0.818682 h 0.612756 v -0.818682 h 1.973878 z"
           style="font-weight:bold;font-family:Raleway;-inkscape-font-specification:Raleway"
           id="path43666" />
        <path
           d="m 57.987971,57.337331 v 0.642892 c 0.632846,0.06027 1.541935,0.05525 2.159713,0 v -0.647914 c -0.542439,0.06529 -1.541935,0.09041 -2.159713,0.005 z m 0.401807,2.144646 -0.577598,-0.05525 c -0.05525,0.256152 -0.08538,0.457055 -0.08538,0.652936 0,0.517327 0.416875,0.823705 1.28076,0.823705 0.567553,0 0.96936,-0.03516 1.295829,-0.09543 l -0.01005,-0.67805 c -0.441987,0.09041 -0.813659,0.130588 -1.26067,0.130588 -0.512304,0 -0.703162,-0.13561 -0.703162,-0.356604 0,-0.13561 0.02009,-0.256152 0.06027,-0.421898 z m -1.175286,-2.481159 -0.703163,-0.06027 c -0.005,0.160723 -0.03516,0.351582 -0.05023,0.492214 -0.05525,0.38674 -0.210949,1.235558 -0.210949,1.988946 0,0.683072 0.09543,1.295828 0.195881,1.642387 l 0.582621,-0.04018 c -0.005,-0.07032 -0.01004,-0.150677 -0.01004,-0.205926 0,-0.05023 0.01004,-0.160723 0.02511,-0.236062 0.05525,-0.266197 0.220994,-0.813659 0.361626,-1.230534 l -0.3114,-0.246107 c -0.07032,0.165745 -0.150678,0.341536 -0.226017,0.512304 -0.01507,-0.100452 -0.02009,-0.231039 -0.02009,-0.326468 0,-0.502259 0.17579,-1.506777 0.241084,-1.843291 0.02009,-0.09041 0.08538,-0.341536 0.125565,-0.44701 z"
           style="font-weight:bold;font-family:Raleway;-inkscape-font-specification:Raleway"
           id="path43668" />
        <path
           d="m 62.699153,56.749688 h -1.516822 v 0.452033 h 1.516822 z m 0.190858,0.673027 h -1.963832 v 0.472124 h 1.963832 z M 62.709198,58.80895 H 61.16224 v 0.447011 h 1.546958 z m 1.91863,0.477146 c -0.120543,0.256152 -0.276243,0.482169 -0.472124,0.67805 -0.200903,-0.200904 -0.366649,-0.42692 -0.487191,-0.67805 z m -2.440979,1.265693 h -0.532395 v -0.577598 h 0.532395 z m 2.817673,-1.828223 -0.100452,0.02511 h -1.767952 c 0.52235,-0.356604 0.622802,-0.929179 0.622802,-1.401303 v -0.08538 h 0.56253 v 0.607734 c 0,0.497236 0.115519,0.652936 0.517326,0.652936 h 0.291311 c 0.336513,0 0.467101,-0.17579 0.517326,-0.798591 -0.145655,-0.04018 -0.376694,-0.125565 -0.487191,-0.210949 -0.005,0.436965 -0.02511,0.502259 -0.09041,0.502259 h -0.125565 c -0.05525,0 -0.06529,-0.01507 -0.06529,-0.155701 v -1.12506 h -1.682568 v 0.597689 c 0,0.336513 -0.05525,0.733298 -0.487191,1.029631 V 58.120855 H 61.16224 v 0.457056 h 1.546958 v -0.190859 c 0.120542,0.08036 0.331491,0.261175 0.416875,0.361627 h -0.170768 v 0.537417 h 0.69814 l -0.512304,0.165746 c 0.1557,0.326468 0.346559,0.617778 0.577598,0.868908 -0.296333,0.195881 -0.637869,0.336513 -1.014563,0.431942 v -1.250625 h -1.557003 v 1.712704 h 0.507281 V 61.01889 h 1.049722 v -0.256152 c 0.110497,0.13561 0.251129,0.371671 0.3114,0.517326 0.42692,-0.130587 0.81366,-0.3114 1.150173,-0.547462 0.316424,0.236062 0.683073,0.421898 1.10497,0.547462 0.08538,-0.1557 0.256152,-0.391762 0.38674,-0.517326 -0.38674,-0.09543 -0.738321,-0.241085 -1.034654,-0.431943 0.346559,-0.376694 0.612756,-0.85384 0.773479,-1.461574 z"
           style="font-weight:bold;font-family:Raleway;-inkscape-font-specification:Raleway"
           id="path43670" />
        <path
           d="m 66.737305,57.668822 h 3.088892 v 0.688095 h 0.617779 V 57.101269 H 68.605708 V 56.59901 h -0.632846 v 0.502259 h -1.823201 v 1.255648 h 0.587644 z m 1.86338,2.189849 h 1.381213 v -0.56253 h -1.381213 v -0.627823 h 1.074835 v -0.567553 h -2.762425 v 0.567553 h 1.069812 v 1.772974 c -0.296333,-0.145655 -0.532395,-0.38674 -0.683072,-0.788547 0.0452,-0.200903 0.08036,-0.411852 0.110497,-0.637869 l -0.622802,-0.06027 c -0.09041,0.858863 -0.336513,1.551981 -0.878953,1.953788 0.140633,0.09041 0.391762,0.301355 0.492214,0.40683 0.286288,-0.246107 0.507282,-0.567553 0.668004,-0.94927 0.462079,0.713208 1.150174,0.863885 2.07433,0.863885 h 1.255648 c 0.03014,-0.17579 0.125565,-0.462078 0.210949,-0.607733 -0.336514,0.01507 -1.165241,0.01507 -1.436461,0.01507 -0.200904,0 -0.391762,-0.01004 -0.572576,-0.03014 z"
           style="font-weight:bold;font-family:Raleway;-inkscape-font-specification:Raleway"
           id="path43672" />
        <path
           d="m 72.668973,56.865208 -0.808637,-0.01005 c 0.0452,0.200904 0.06529,0.441988 0.06529,0.67805 0,0.431943 -0.05023,1.752884 -0.05023,2.425911 0,0.858863 0.532395,1.22049 1.3561,1.22049 1.14515,0 1.858358,-0.673027 2.179804,-1.155196 l -0.457056,-0.552485 c -0.361626,0.547462 -0.888998,1.024608 -1.717726,1.024608 -0.391762,0 -0.693117,-0.165745 -0.693117,-0.673027 0,-0.622801 0.04018,-1.747861 0.06027,-2.290301 0.01005,-0.200903 0.03516,-0.457056 0.06529,-0.668004 z"
           style="font-weight:bold;font-family:Raleway;-inkscape-font-specification:Raleway"
           id="path43674" />
        <path
           d="m 77.25459,60.280569 c 0,-0.170768 0.195881,-0.311401 0.552485,-0.311401 0.140633,0 0.276243,0.01507 0.411853,0.03516 0.005,0.09041 0.005,0.160723 0.005,0.215972 0,0.29131 -0.175791,0.366649 -0.441988,0.366649 -0.346559,0 -0.527372,-0.11552 -0.527372,-0.306378 z m 1.572071,-3.495723 h -0.67805 c 0.02009,0.09543 0.03014,0.25113 0.03014,0.346559 0,0.06027 0,0.140632 0,0.236062 -0.06529,0 -0.130588,0 -0.195881,0 -0.306378,0 -0.878954,-0.05023 -1.24058,-0.110497 l 0.01507,0.572575 c 0.331491,0.0452 0.914111,0.09041 1.230534,0.09041 0.06027,0 0.120543,0 0.185836,0 -0.005,0.170768 -0.005,0.351581 -0.005,0.517326 -0.08036,0 -0.160723,0 -0.241085,0 -0.266197,0 -0.883976,-0.03516 -1.210444,-0.09543 l 0.005,0.592666 c 0.331491,0.04018 0.904066,0.06529 1.195376,0.06529 0.09041,0 0.175791,0 0.261175,0 0.005,0.150678 0.01005,0.311401 0.02009,0.467101 -0.100452,-0.01004 -0.205926,-0.01507 -0.3114,-0.01507 -0.773479,0 -1.24058,0.356603 -1.24058,0.863885 0,0.532395 0.421897,0.838773 1.225512,0.838773 0.662982,0 0.98945,-0.331491 0.98945,-0.758411 0,-0.05525 0,-0.11552 -0.005,-0.185836 0.401808,0.180813 0.743344,0.44701 1.014564,0.69814 l 0.361626,-0.56253 c -0.29131,-0.241085 -0.773479,-0.577598 -1.406325,-0.758411 -0.01507,-0.200904 -0.02511,-0.40683 -0.03516,-0.597689 0.482168,-0.01507 0.87393,-0.05023 1.325964,-0.100452 l 0.005,-0.592665 c -0.40683,0.05525 -0.83375,0.09543 -1.341031,0.120542 0,-0.1557 0,-0.341536 0,-0.517327 0.487191,-0.02511 0.944247,-0.07032 1.275738,-0.110497 l 0.005,-0.577598 c -0.441988,0.07534 -0.858863,0.11552 -1.270715,0.13561 0,-0.08036 0,-0.1557 0.005,-0.205926 0.005,-0.130587 0.01507,-0.256152 0.03014,-0.356604 z"
           style="font-weight:bold;font-family:Raleway;-inkscape-font-specification:Raleway"
           id="path43676" />
        <path
           d="m 82.714135,56.865208 -0.808637,-0.01005 c 0.0452,0.200904 0.06529,0.441988 0.06529,0.67805 0,0.431943 -0.05023,1.752884 -0.05023,2.425911 0,0.858863 0.532395,1.22049 1.3561,1.22049 1.14515,0 1.858358,-0.673027 2.179804,-1.155196 l -0.457056,-0.552485 c -0.361626,0.547462 -0.888998,1.024608 -1.717726,1.024608 -0.391762,0 -0.693117,-0.165745 -0.693117,-0.673027 0,-0.622801 0.04018,-1.747861 0.06027,-2.290301 0.01004,-0.200903 0.03516,-0.457056 0.06529,-0.668004 z"
           style="font-weight:bold;font-family:Raleway;-inkscape-font-specification:Raleway"
           id="path43678" />
        <path
           d="m 87.344952,60.431247 c 0,-0.165746 0.175791,-0.27122 0.497236,-0.27122 0.100452,0 0.200904,0.01004 0.301356,0.02511 0,0.05525 0,0.105474 0,0.150677 0,0.23104 -0.110497,0.351582 -0.336514,0.351582 -0.281265,0 -0.462078,-0.110497 -0.462078,-0.256152 z m 1.381212,-2.767448 h -0.678049 c 0.02009,0.09041 0.04018,0.301356 0.04018,0.497237 v 0.708185 c 0,0.226017 0.01507,0.522349 0.03014,0.803615 -0.06529,-0.005 -0.130588,-0.01005 -0.200904,-0.01005 -0.728275,0 -1.140128,0.316424 -1.140128,0.798592 0,0.527372 0.497237,0.783524 1.10497,0.783524 0.673027,0 0.878953,-0.336513 0.878953,-0.708185 0,-0.03516 0,-0.07534 -0.005,-0.125565 0.341536,0.180814 0.627823,0.436966 0.843795,0.65796 L 89.94668,60.521649 C 89.67546,60.27052 89.24854,59.964142 88.72619,59.793374 88.7061,59.481973 88.68601,59.14546 88.68601,58.929488 c 0.336514,-0.005 0.838773,-0.02511 1.175287,-0.05525 l -0.01507,-0.557508 c -0.336514,0.03516 -0.828728,0.06027 -1.160219,0.07032 v -0.236061 c 0,-0.175791 0.02511,-0.391762 0.04018,-0.487192 z"
           style="font-weight:bold;font-family:Raleway;-inkscape-font-specification:Raleway"
           id="path43680" />
        <path
           d="m 94.33639,59.205735 c 0,0.783524 -0.803614,1.195376 -2.049217,1.336009 l 0.361627,0.622801 c 1.39628,-0.190859 2.390753,-0.858863 2.390753,-1.933697 0,-0.788547 -0.557508,-1.24058 -1.351077,-1.24058 -0.587643,0 -1.150173,0.145655 -1.516822,0.231039 -0.165746,0.03516 -0.381717,0.07032 -0.552485,0.08538 l 0.190858,0.71823 c 0.145656,-0.05525 0.341537,-0.13561 0.487192,-0.17579 0.256152,-0.07534 0.753388,-0.246107 1.305873,-0.246107 0.472124,0 0.733298,0.27122 0.733298,0.602711 z m -1.973878,-2.410844 -0.100451,0.602711 c 0.577597,0.100452 1.667499,0.200904 2.255142,0.241085 l 0.100452,-0.617779 c -0.532394,-0.005 -1.672522,-0.100452 -2.255143,-0.226017 z"
           style="font-weight:bold;font-family:Raleway;-inkscape-font-specification:Raleway"
           id="path43682" />
        <path
           d="m 96.209809,60.848122 v -0.723253 h 0.552485 v 0.723253 z"
           style="font-weight:bold;font-family:Raleway;-inkscape-font-specification:Raleway"
           id="path43684" />
        <path
           d="m 97.339883,60.848122 v -0.723253 h 0.552485 v 0.723253 z"
           style="font-weight:bold;font-family:Raleway;-inkscape-font-specification:Raleway"
           id="path43686" />
        <path
           d="m 98.469956,60.848122 v -0.723253 h 0.552485 v 0.723253 z"
           style="font-weight:bold;font-family:Raleway;-inkscape-font-specification:Raleway"
           id="path43688" />
      </g>
    </g>
  </g>
</svg>
