<?xml version="1.0" encoding="UTF-8" standalone="no"?>
<svg
   version="1.1"
   id="svg1"
   width="16"
   height="16"
   viewBox="0 0 16 16"
   sodipodi:docname="align-horizontal-node-symbolic.svg"
   inkscape:version="1.1.1 (3bf5ae0d25, 2021-09-20)"
   xmlns:inkscape="http://www.inkscape.org/namespaces/inkscape"
   xmlns:sodipodi="http://sodipodi.sourceforge.net/DTD/sodipodi-0.dtd"
   xmlns="http://www.w3.org/2000/svg"
   xmlns:svg="http://www.w3.org/2000/svg"
   xmlns:rdf="http://www.w3.org/1999/02/22-rdf-syntax-ns#"
   xmlns:cc="http://creativecommons.org/ns#"
   xmlns:dc="http://purl.org/dc/elements/1.1/">
  <style
     id="s0">
   .success { fill: #009909; }
   .warning { fill: #FF1990; }
   .error   { fill: #00AAFF; }
  </style>
  <style
     id="s2"> 
     @import '../../highlights.css'; 
  </style>
  <metadata
     id="metadata435">
    <rdf:RDF>
      <cc:Work
         rdf:about="">
        <dc:format>image/svg+xml</dc:format>
        <dc:type
           rdf:resource="http://purl.org/dc/dcmitype/StillImage" />
      </cc:Work>
    </rdf:RDF>
  </metadata>
  <defs
     id="defs433">
    <inkscape:path-effect
       effect="join_type"
       id="path-effect3466"
       is_visible="true"
       linecap_type="butt"
       line_width="2"
       linejoin_type="extrp_arc"
       miter_limit="100"
       attempt_force_join="true" />
  </defs>
  <sodipodi:namedview
     objecttolerance="10"
     gridtolerance="10"
     guidetolerance="10"
     id="namedview"
     showgrid="true"
     inkscape:zoom="31.678384"
     inkscape:cx="3.1725103"
     inkscape:cy="6.502857"
     inkscape:window-width="1858"
     inkscape:window-height="1177"
     inkscape:window-x="54"
     inkscape:window-y="-8"
     inkscape:window-maximized="1"
     inkscape:current-layer="align-horizontal-node"
     inkscape:document-rotation="0"
     pagecolor="#ffffff"
     bordercolor="#666666"
     borderopacity="1.0"
     inkscape:pageshadow="2"
     inkscape:pageopacity="0.0"
     inkscape:pagecheckerboard="0">
    <inkscape:grid
       type="xygrid"
       id="grid" />
  </sodipodi:namedview>
  <g
     transform="matrix(0.666667,0,0,0.66653,-696,-574.12056)"
     inkscape:label="00294"
     id="align-horizontal-node">
    <path
       inkscape:connector-curvature="0"
       id="rect5251"
       d="m 1052.9995,862.85773 h 4.5009 v 4.50092 h -4.5009 z m 0,7.50154 h 4.5009 v 4.50092 h -4.5009 z m -9e-4,7.50153 h 4.5009 v 4.50092 h -4.5009 z"
       style="display:inline;opacity:1"
       sodipodi:nodetypes="ccccccccccccccc" />
    <path
       inkscape:connector-curvature="0"
       id="rect19636"
       d="m 1044,861.36218 h 24 v 24 h -24 z"
       style="opacity:0;fill:none" />
    <path
       sodipodi:nodetypes="csssasc"
       transform="matrix(0.86350874,0,0,0.86368623,213.4531,670.61281)"
       inkscape:connector-curvature="0"
       id="path2265"
       d="m 964.24708,222.57253 c 0.0802,3.45508 5.82272,3.366 10.56082,3.36824 5.79012,0.003 8.54632,1.70112 8.5688,3.64155 0.0223,1.92158 -3.52105,3.35492 -8.26197,3.20661 -5.2773,-0.16508 -9.05185,1.58402 -9.0467,5.46519 0.005,3.78796 3.93705,5.38921 8.80412,5.30889 4.82659,-0.0796 10.27464,0.55737 10.27467,3.3429 l 2,-2e-5 c -5e-5,-4.86799 -7.30258,-5.42518 -12.30767,-5.3426 -4.36966,0.0721 -6.76826,-1.18808 -6.77112,-3.31185 -0.003,-2.23539 2.25818,-3.61133 6.98416,-3.46349 5.13823,0.16074 10.36791,-1.47603 10.32437,-5.22881 -0.0423,-3.65181 -4.36297,-5.61527 -10.56769,-5.61837 -4.73218,-0.002 -8.53456,-0.2178 -8.56233,-1.41464 z"
       inkscape:path-effect="#path-effect3466"
       inkscape:original-d="m 965.24681,222.54933 c 0.0548,2.36177 4.82634,2.3892 9.56159,2.39144 5.99899,0.003 9.53577,1.82731 9.56823,4.62995 0.0331,2.85325 -4.35011,4.37235 -9.29317,4.21772 -5.00164,-0.15646 -8.01949,1.40606 -8.01543,4.46433 0.004,2.96697 3.16594,4.38665 7.78762,4.31038 4.91584,-0.0811 11.29113,0.51599 11.29117,4.34275"
       style="opacity:0.5" />
    <path
       inkscape:connector-curvature="0"
       id="path5262"
       d="m 1054.4995,861.35742 v 24.00492 h 1.5 v -24.00492 z"
       style="opacity:1;fill-opacity:1"
       sodipodi:nodetypes="ccccc"
       class="success" />
  </g>
</svg>
