<?xml version="1.0" encoding="UTF-8" standalone="no"?>
<svg
   inkscape:version="1.2-dev (23aae8c4c8, 2021-11-30, custom)"
   sodipodi:docname="tool-pages-symbolic.svg"
   viewBox="0 0 16 16"
   height="16"
   width="16"
   id="svg1"
   version="1.1"
   xmlns:inkscape="http://www.inkscape.org/namespaces/inkscape"
   xmlns:sodipodi="http://sodipodi.sourceforge.net/DTD/sodipodi-0.dtd"
   xmlns="http://www.w3.org/2000/svg"
   xmlns:svg="http://www.w3.org/2000/svg"
   xmlns:rdf="http://www.w3.org/1999/02/22-rdf-syntax-ns#"
   xmlns:cc="http://creativecommons.org/ns#"
   xmlns:dc="http://purl.org/dc/elements/1.1/">
  <style
     id="s0">
   .success { fill: #009909; }
   .warning { fill: #FF1990; }
   .error   { fill: #00AAFF; }
  </style>
  <style
     id="s2"> 
     @import '../../highlights.css'; 
  </style>
  <metadata
     id="metadata1890">
    <rdf:RDF>
      <cc:Work
         rdf:about="">
        <dc:format>image/svg+xml</dc:format>
        <dc:type
           rdf:resource="http://purl.org/dc/dcmitype/StillImage" />
      </cc:Work>
    </rdf:RDF>
  </metadata>
  <defs
     id="defs1888" />
  <sodipodi:namedview
     inkscape:document-rotation="0"
     inkscape:current-layer="snap-page"
     inkscape:window-maximized="1"
     inkscape:window-y="20"
     inkscape:window-x="66"
     inkscape:window-height="843"
     inkscape:window-width="1534"
     inkscape:cy="8.1903287"
     inkscape:cx="11.46646"
     inkscape:zoom="27.166187"
     showgrid="false"
     id="namedview"
     guidetolerance="10"
     gridtolerance="10"
     objecttolerance="10"
     pagecolor="#ffffff"
     bordercolor="#999999"
     borderopacity="1"
     inkscape:pageshadow="2"
     inkscape:pageopacity="0"
     inkscape:pagecheckerboard="0"
     inkscape:blackoutopacity="0.0">
    <inkscape:grid
       id="grid"
       type="xygrid" />
  </sodipodi:namedview>
  <g
     id="snap-page"
     inkscape:label="00334"
     transform="translate(-979,-527.3622)">
    <path
       style="opacity:0.4"
       d="m 989,528.36219 h -6 l -2,2 v 9.00001 h 3 v -6 l 3,-3 h 2 z"
       id="path205"
       class="error"
       sodipodi:nodetypes="ccccccccc" />
    <path
       style="opacity:0.8"
       d="m 993,531.3622 h -5 -1 l -2,2 v 9 h 8 z"
       id="path90"
       class="error"
       sodipodi:nodetypes="ccccccc" />
    <path
       transform="translate(0,512.3622)"
       style="opacity:0;fill:none"
       d="m 979,15 h 16 v 16 h -16 z"
       id="rect16572"
       inkscape:connector-curvature="0" />
    <path
       id="rect16574"
       d="m 983,528.36219 v 2 h -2 z m 2,11.00001 h -4 v -8.02149 l 3,0.0215 v -3.00002 h 2 2 1 v 3.00001 h 1 v -4.00001 h -1 -3 -3 l -3,3 v 10.00001 h 5 z"
       sodipodi:nodetypes="cccccccccccccccccccccc" />
    <path
       id="path752"
       d="m 987,530.3622 -3,3 v 10 h 10 v -13 h -1 -3 z m 0,1 v 2 h -2 z m 1,0.5 h 4.5 v 10 h -7 v -7.41964 l 2.5,-0.0803 z"
       sodipodi:nodetypes="ccccccccccccccccccc" />
  </g>
</svg>
