<?xml version="1.0" encoding="UTF-8" standalone="no"?>
<svg
   inkscape:version="1.2-dev (af50ded58b, 2021-07-07, custom)"
   id="svg8"
   version="1.1"
   viewBox="0 0 9 24"
   height="24"
   width="9"
   sodipodi:docname="entries-unlinked-symbolic.svg"
   xmlns:inkscape="http://www.inkscape.org/namespaces/inkscape"
   xmlns:sodipodi="http://sodipodi.sourceforge.net/DTD/sodipodi-0.dtd"
   xmlns="http://www.w3.org/2000/svg"
   xmlns:svg="http://www.w3.org/2000/svg"
   xmlns:rdf="http://www.w3.org/1999/02/22-rdf-syntax-ns#"
   xmlns:cc="http://creativecommons.org/ns#"
   xmlns:dc="http://purl.org/dc/elements/1.1/">
  <defs
     id="defs2" />
  <sodipodi:namedview
     inkscape:showpageshadow="false"
     width="1100px"
     units="px"
     showgrid="false"
     inkscape:current-layer="layer1"
     inkscape:document-units="px"
     inkscape:cy="10.368711"
     inkscape:cx="1.3396988"
     inkscape:zoom="35.828948"
     inkscape:pageshadow="2"
     inkscape:pageopacity="0"
     borderopacity="1.0"
     bordercolor="#666666"
     pagecolor="#3d3d3d"
     id="base"
     objecttolerance="10.0"
     gridtolerance="10.0"
     guidetolerance="10.0"
     inkscape:pagecheckerboard="true"
     inkscape:window-width="1500"
     inkscape:window-height="934"
     inkscape:window-x="0"
     inkscape:window-y="0"
     inkscape:window-maximized="1">
    <inkscape:grid
       type="xygrid"
       id="grid866"
       color="#3f3fff"
       opacity="0.29411765" />
  </sodipodi:namedview>
  <metadata
     id="metadata5">
    <rdf:RDF>
      <cc:Work
         rdf:about="">
        <dc:format>image/svg+xml</dc:format>
        <dc:type
           rdf:resource="http://purl.org/dc/dcmitype/StillImage" />
      </cc:Work>
    </rdf:RDF>
  </metadata>
  <g
     id="layer1"
     inkscape:groupmode="layer"
     inkscape:label="Layer 1">
    <g
       inkscape:label="Layer 1"
       id="layer1-3"
       transform="matrix(0.04643223,-0.04643223,0.04643223,0.04643223,-33.225954,-17.159863)"
       style="stroke-width:15.2287" />
    <path
       style="stroke-width:0.999994"
       d="M 8.0254035,5.512702 C 8.0254037,3.5832366 6.4421678,2.0000007 4.5127014,2 c -1.9294666,9e-7 -3.5127021,1.5832363 -3.51270208,3.512703 l 5e-8,4.1715272 C 1.4135638,8.9293953 2.0962945,8.3399234 2.9160185,8.0480005 l -10e-8,-2.5352984 c 4e-7,-0.9011321 0.6955505,-1.5966822 1.5966825,-1.5966826 0.9011324,7e-7 1.5966832,0.6955497 1.5966832,1.5966831 V 11.58872 c 0,0.901132 -0.6955497,1.596682 -1.5966833,1.596683 -0.5290937,-1e-6 -0.958009,0.428914 -0.9580094,0.95801 4e-7,0.529092 0.4289167,0.958008 0.9580099,0.958008 1.9294661,0 3.5127027,-1.583235 3.5127017,-3.512702 z"
       id="use5102"
       sodipodi:nodetypes="scsccccssssscs" />
    <path
       style="stroke-width:0.999994"
       d="m 0.99999932,18.488843 c -2e-7,1.929465 1.58323568,3.512701 3.51270208,3.512702 1.9294666,-1e-6 3.5127021,-1.583236 3.5127021,-3.512703 V 14.317315 C 7.611839,15.07215 6.9291083,15.661622 6.1093843,15.953545 l 10e-8,2.535298 c -4e-7,0.901132 -0.6955505,1.596682 -1.5966825,1.596683 -0.9011324,-1e-6 -1.5966832,-0.69555 -1.5966832,-1.596684 v -6.076016 c 0,-0.901132 0.6955497,-1.596682 1.5966833,-1.596683 0.5290937,10e-7 0.958009,-0.428914 0.9580094,-0.9580104 -4e-7,-0.529092 -0.4289167,-0.958008 -0.9580099,-0.958008 -1.9294661,0 -3.51270268,1.5832354 -3.51270168,3.5127014 z"
       id="path1090"
       sodipodi:nodetypes="scsccccssssscs" />
  </g>
</svg>
