<?xml version="1.0" encoding="UTF-8" standalone="no"?>
<svg
   id="svg8"
   version="1.1"
   viewBox="0 0 15.999999 15.999999"
   height="15.999999"
   width="15.999999"
   sodipodi:docname="info-button-symbolic.svg"
   inkscape:version="1.2-dev (51c961532c, 2021-07-17, custom)"
   xmlns:inkscape="http://www.inkscape.org/namespaces/inkscape"
   xmlns:sodipodi="http://sodipodi.sourceforge.net/DTD/sodipodi-0.dtd"
   xmlns="http://www.w3.org/2000/svg"
   xmlns:svg="http://www.w3.org/2000/svg"
   xmlns:rdf="http://www.w3.org/1999/02/22-rdf-syntax-ns#"
   xmlns:cc="http://creativecommons.org/ns#"
   xmlns:dc="http://purl.org/dc/elements/1.1/">
  <sodipodi:namedview
     id="namedview827"
     pagecolor="#505050"
     bordercolor="#eeeeee"
     borderopacity="1"
     inkscape:pageshadow="0"
     inkscape:pageopacity="0"
     inkscape:pagecheckerboard="0"
     showgrid="false"
     inkscape:zoom="48.437503"
     inkscape:cx="7.9896769"
     inkscape:cy="7.9999995"
     inkscape:window-width="1500"
     inkscape:window-height="934"
     inkscape:window-x="0"
     inkscape:window-y="0"
     inkscape:window-maximized="1"
     inkscape:current-layer="svg8" />
  <defs
     id="defs2" />
  <metadata
     id="metadata5">
    <rdf:RDF>
      <cc:Work
         rdf:about="">
        <dc:format>image/svg+xml</dc:format>
        <dc:type
           rdf:resource="http://purl.org/dc/dcmitype/StillImage" />
      </cc:Work>
    </rdf:RDF>
  </metadata>
  <g
     id="layer1"
     transform="translate(-504.28571,-664.28571)" />
  <path
     id="path1089"
     d="M 8,0 C 3.5876487,0 0,3.5876487 0,8 c 0,4.412351 3.5876487,8 8,8 4.412351,0 8,-3.587649 8,-8 C 16,3.5876487 12.412351,0 8,0 Z m 0,1 c 3.871912,0 7,3.1280883 7,7 0,3.871912 -3.128088,7 -7,7 C 4.1280883,15 1,11.871912 1,8 1,4.1280883 4.1280883,1 8,1 Z m 1.16349,2.51397 c 0,0.64859 -0.45846,1.11561 -1.18174,1.11561 C 7.29406,4.62958 6.8,4.18672 6.8,3.51397 6.8,2.86328 7.28185,2.39836 7.98175,2.39836 c 0.72922,0 1.18174,0.46639 1.18174,1.11561 z M 6,13 h 4 V 11.7 H 9.1 v -6 H 6 V 7 h 0.9 v 4.7 H 6 Z" />
</svg>
