<?xml version="1.0" encoding="UTF-8" standalone="no"?>
<svg
   xmlns="http://www.w3.org/2000/svg"
   version="1.1"
   width="16"
   height="16"
   viewBox="0 0 16 16">
  <path style="opacity: 1;"
     d="M 2 2 L 2 14 L 14 14 L 14 2 L 2 2 z M 8.1210938 3.1464844 C 9.0672719 3.1464844 9.8305138 3.3433169 10.412109 3.7382812 C 11.202038 4.2721341 11.597656 4.9852453 11.597656 5.875 C 11.597656 6.2439227 11.495008 6.5985251 11.291016 6.9414062 C 11.087023 7.2842873 10.670354 7.7044283 10.041016 8.1992188 C 9.602649 8.5464401 9.3242185 8.8263894 9.2070312 9.0390625 C 9.0941843 9.2473953 9.0390625 9.5208342 9.0390625 9.859375 L 6.5644531 9.859375 L 6.5644531 9.6113281 C 6.5644531 9.1903222 6.6115454 8.8502597 6.7070312 8.5898438 C 6.8025172 8.3250875 6.944228 8.0842008 7.1308594 7.8671875 C 7.3218311 7.6501742 7.7465295 7.2675768 8.40625 6.7207031 C 8.7578116 6.4342455 8.9335938 6.1723084 8.9335938 5.9335938 C 8.9335938 5.6948791 8.8619788 5.5091143 8.71875 5.3789062 C 8.5798615 5.2443581 8.3684889 5.1777344 8.0820312 5.1777344 C 7.7738723 5.1777344 7.5164925 5.2803825 7.3125 5.484375 C 7.1128477 5.6883675 6.986111 6.04297 6.9296875 6.5507812 L 4.4023438 6.2382812 C 4.489149 5.3094642 4.8261733 4.5642346 5.4121094 4 C 6.0023856 3.4314249 6.905819 3.1464844 8.1210938 3.1464844 z M 6.4804688 10.515625 L 9.1289062 10.515625 L 9.1289062 12.853516 L 6.4804688 12.853516 L 6.4804688 10.515625 z " />
</svg>
