<?xml version="1.0" encoding="UTF-8" standalone="no"?>
<svg
   id="svg8"
   version="1.1"
   viewBox="0 0 24 24"
   height="24"
   width="24"
   xmlns="http://www.w3.org/2000/svg"
   xmlns:svg="http://www.w3.org/2000/svg"
   xmlns:rdf="http://www.w3.org/1999/02/22-rdf-syntax-ns#"
   xmlns:cc="http://creativecommons.org/ns#"
   xmlns:dc="http://purl.org/dc/elements/1.1/">
  <defs
     id="defs2" />
  <metadata
     id="metadata5">
    <rdf:RDF>
      <cc:Work
         rdf:about="">
        <dc:format>image/svg+xml</dc:format>
        <dc:type
           rdf:resource="http://purl.org/dc/dcmitype/StillImage" />
      </cc:Work>
    </rdf:RDF>
  </metadata>
  <g
     id="layer1"
     transform="translate(-406,-244)">
    <path
       style="stroke:none"
       d="M 409.69141,247 C 408.76585,247 408,247.76585 408,248.69141 v 5.61718 c 0,0.92556 0.76585,1.69141 1.69141,1.69141 h 14.61718 C 425.23415,256 426,255.23415 426,254.30859 v -5.61718 C 426,247.76585 425.23415,247 424.30859,247 Z m 0,1.38477 h 14.61718 c 0.18244,0 0.30664,0.1242 0.30664,0.30664 v 5.61718 c 0,0.18244 -0.1242,0.30664 -0.30664,0.30664 h -14.61718 c -0.18244,0 -0.30664,-0.1242 -0.30664,-0.30664 v -5.61718 c 0,-0.18244 0.1242,-0.30664 0.30664,-0.30664 z"
       id="rect33783" />
    <path
       id="rect42280"
       style="stroke:none"
       transform="translate(406,244)"
       d="m 15.75,15 v 2.75 H 13 v 1.5 h 2.75 V 22 h 1.5 V 19.25 H 20 v -1.5 H 17.25 V 15 Z M 16.5,13 C 13.46836,13 11,15.46836 11,18.5 11,21.53164 13.46836,24 16.5,24 19.53164,24 22,21.53164 22,18.5 22,15.46836 19.53164,13 16.5,13 Z m 0,1 C 18.9912,14 21,16.0088 21,18.5 21,20.9912 18.9912,23 16.5,23 14.0088,23 12,20.9912 12,18.5 12,16.0088 14.0088,14 16.5,14 Z" />
    <path
       id="path2338"
       style="color:#000000;fill:#000000;stroke-dashoffset:15;-inkscape-stroke:none"
       d="m 414.17977,246.98437 h -0.004 m 0,0 c -10e-6,0.002 10e-6,0.004 0,0.006 m -1.29492,0 c -1e-5,-0.002 10e-6,-0.004 0,-0.006 m 0,0 h -0.004 m 1.30292,0 c -0.002,-0.5468 0.15354,-0.93671 0.43359,-1.21093 0.28005,-0.27423 0.72558,-0.46966 1.44531,-0.47266 l -0.004,-1.29883 h 2e-5 c -0.96707,0.003 -1.78878,0.29268 -2.35157,0.84375 -0.0621,0.0608 -0.11902,0.12541 -0.17382,0.19141 -0.0551,-0.0664 -0.11338,-0.13031 -0.17578,-0.19141 -0.56279,-0.55107 -1.3845,-0.84075 -2.35157,-0.84375 l -0.004,1.29883 c 0.71973,0.003 1.16526,0.19843 1.44531,0.47266 0.28005,0.27422 0.43559,0.66413 0.43359,1.21093 v 9.02358 c 0.002,0.5468 -0.15354,0.93671 -0.43359,1.21093 -0.28005,0.27423 -0.72558,0.46966 -1.44531,0.47266 l 0.004,1.29883 c 0.96707,-0.003 1.78878,-0.29268 2.35157,-0.84375 0.0624,-0.0611 0.12071,-0.12504 0.17578,-0.19141 0.0548,0.066 0.11175,0.13062 0.17382,0.19141 0.56279,0.55107 1.3845,0.84032 2.35157,0.84375 h -2e-5 l 0.004,-1.29883 c -0.71973,-0.003 -1.16526,-0.19843 -1.44531,-0.47266 -0.28005,-0.27422 -0.436,-0.66413 -0.43359,-1.21093 z" />
    <path
       id="path4613"
       style="color:#000000;fill:#000000;stroke-dashoffset:15;-inkscape-stroke:none"
       d="m 404.17977,256.00795 h -0.004 m 0,0 c -10e-6,-0.002 10e-6,-0.004 0,-0.006 m -1.29492,0 c -1e-5,0.002 10e-6,0.004 0,0.006 m 0,0 h -0.004" />
  </g>
</svg>
