<?xml version="1.0" encoding="UTF-8" standalone="no"?>
<svg
   id="svg8"
   version="1.1"
   viewBox="0 0 24 24"
   height="24"
   width="24"
   xmlns="http://www.w3.org/2000/svg"
   xmlns:svg="http://www.w3.org/2000/svg"
   xmlns:rdf="http://www.w3.org/1999/02/22-rdf-syntax-ns#"
   xmlns:cc="http://creativecommons.org/ns#"
   xmlns:dc="http://purl.org/dc/elements/1.1/">
  <defs
     id="defs2" />
  <metadata
     id="metadata5">
    <rdf:RDF>
      <cc:Work
         rdf:about="">
        <dc:format>image/svg+xml</dc:format>
        <dc:type
           rdf:resource="http://purl.org/dc/dcmitype/StillImage" />
      </cc:Work>
    </rdf:RDF>
  </metadata>
  <path
     id="rect3670"
     style="stroke:none"
     d="m 16.75,15 v 2.75 H 14 v 1.5 h 2.75 V 22 h 1.5 V 19.25 H 21 v -1.5 H 18.25 V 15 Z M 17.5,14 C 19.991202,14 22,16.008799 22,18.5 22,20.991201 19.991202,23 17.5,23 15.008798,23 13,20.991201 13,18.5 13,16.008799 15.008798,14 17.5,14 Z m 0,-1 C 14.468359,13 12,15.46836 12,18.5 12,21.531641 14.468359,24 17.5,24 20.531641,24 23,21.531641 23,18.5 23,15.46836 20.531641,13 17.5,13 Z M 12.617188,0.8940465 9.4707031,12.634284 11.232422,13.106941 14.376953,1.3667036 Z m 6.029296,0.9042978 -1.289062,1.2890627 3.912109,3.9121092 -3.912109,3.9140648 1.289062,1.289063 5.201172,-5.2031278 z m -13.443359,0 L 0,6.9995162 5.203125,12.202644 6.4921875,10.913581 2.578125,6.9995162 6.4921875,3.087407 Z" />
</svg>
